<?xml version="1.0" encoding="utf-8"?>
<!-- Generator: Adobe Illustrator 21.1.0, SVG Export Plug-In . SVG Version: 6.00 Build 0)  -->
<svg version="1.1" id="Layer_1" xmlns="http://www.w3.org/2000/svg" xmlns:xlink="http://www.w3.org/1999/xlink" x="0px" y="0px"
	 viewBox="0 0 194.5 67.8" style="enable-background:new 0 0 194.5 67.8;" xml:space="preserve">
<style type="text/css">
	.st0{fill:#F7811E;}
	.st1{fill:#FFFFFF;}
</style>
<g>
	<path class="st0" d="M15.4,63.7h24.8c0.3,0,0.5-0.2,0.5-0.5V38.3c0-0.3-0.2-0.5-0.5-0.5H15.4c-0.3,0-0.5,0.2-0.5,0.5v24.8
		C14.9,63.3,15,63.7,15.4,63.7z"/>
	<path class="st0" d="M14.9,5.7v24.8c0,0.3,0.2,0.5,0.5,0.5h24.8c0.3,0,0.5-0.2,0.5-0.5V5.7c0-0.3-0.2-0.5-0.5-0.5H15.4
		C15,5.1,14.9,5.3,14.9,5.7z"/>
	<path class="st1" d="M2,65.4h51.5V3.3H2V65.4z M14.9,38.3c0-0.3,0.2-0.5,0.5-0.5h24.8c0.3,0,0.5,0.2,0.5,0.5v24.8
		c0,0.3-0.2,0.5-0.5,0.5H15.4c-0.3,0-0.5-0.2-0.5-0.5V38.3z M43.8,5.7c0-0.3,0.2-0.5,0.5-0.5h6.1h0.2c0.3,0,0.5,0.2,0.5,0.5V12
		c0,0.3-0.2,0.5-0.5,0.5h-0.2h-6.1c-0.3,0-0.5-0.2-0.5-0.5V5.7z M43.8,15.9c0-0.3,0.2-0.5,0.5-0.5h6.3c0.3,0,0.5,0.2,0.5,0.5v6.3
		c0,0.3-0.2,0.5-0.5,0.5h-6.3c-0.3,0-0.5-0.2-0.5-0.5V15.9z M43.8,26c0-0.3,0.2-0.5,0.5-0.5h6.3c0.3,0,0.5,0.2,0.5,0.5v6.3
		c0,0.3-0.2,0.5-0.5,0.5h-6.3c-0.3,0-0.5-0.2-0.5-0.5V26z M43.8,36.3c0-0.3,0.2-0.5,0.5-0.5h6.3c0.3,0,0.5,0.2,0.5,0.5v6.3
		c0,0.3-0.2,0.5-0.5,0.5h-6.3c-0.3,0-0.5-0.2-0.5-0.5V36.3z M43.8,46.5c0-0.3,0.2-0.5,0.5-0.5h6.3c0.3,0,0.5,0.2,0.5,0.5v6.3
		c0,0.3-0.2,0.5-0.5,0.5h-6.3c-0.3,0-0.5-0.2-0.5-0.5V46.5z M43.8,56.8c0-0.3,0.2-0.5,0.5-0.5h6.3c0.3,0,0.5,0.2,0.5,0.5v6.3
		c0,0.3-0.2,0.5-0.5,0.5h-6.3c-0.3,0-0.5-0.2-0.5-0.5V56.8z M40.2,5.1c0.3,0,0.5,0.2,0.5,0.5v24.8c0,0.3-0.2,0.5-0.5,0.5H15.4
		c-0.3,0-0.5-0.2-0.5-0.5V5.7c0-0.3,0.2-0.5,0.5-0.5L40.2,5.1L40.2,5.1z M4.4,5.7c0-0.3,0.2-0.5,0.5-0.5h6.3c0.3,0,0.5,0.2,0.5,0.5
		V12c0,0.3-0.2,0.5-0.5,0.5H4.9c-0.3,0-0.5-0.2-0.5-0.5V5.7z M4.4,15.9c0-0.3,0.2-0.5,0.5-0.5h6.3c0.3,0,0.5,0.2,0.5,0.5v6.3
		c0,0.3-0.2,0.5-0.5,0.5H4.9c-0.3,0-0.5-0.2-0.5-0.5V15.9z M4.4,26c0-0.3,0.2-0.5,0.5-0.5h6.3c0.3,0,0.5,0.2,0.5,0.5v6.3
		c0,0.3-0.2,0.5-0.5,0.5H4.9c-0.3,0-0.5-0.2-0.5-0.5V26z M4.4,36.3c0-0.3,0.2-0.5,0.5-0.5h6.3c0.3,0,0.5,0.2,0.5,0.5v6.3
		c0,0.3-0.2,0.5-0.5,0.5H4.9c-0.3,0-0.5-0.2-0.5-0.5V36.3z M4.4,46.5c0-0.3,0.2-0.5,0.5-0.5h6.3c0.3,0,0.5,0.2,0.5,0.5v6.3
		c0,0.3-0.2,0.5-0.5,0.5H4.9c-0.3,0-0.5-0.2-0.5-0.5V46.5z M4.4,56.8c0-0.3,0.2-0.5,0.5-0.5h6.3c0.3,0,0.5,0.2,0.5,0.5v6.3
		c0,0.3-0.2,0.5-0.5,0.5H4.9c-0.3,0-0.5-0.2-0.5-0.5V56.8z"/>
	<path class="st1" d="M74.8,12.1l-2.5,0.2v-2.1c0-0.6,0.5-1,1.4-1c0.5,0,0.8,0,1.1,0c0.8-0.1,1.3-0.3,1.7-0.7
		c0.4-0.5,0.7-1.4,0.7-2.6c0-1.6-0.3-2.6-1-3c-0.4-0.2-0.7-0.3-1-0.4c-0.3,0-0.7-0.1-1.3-0.1c-2.7,0-4.7,0.8-6.1,2.4
		s-2.1,3.4-2.1,5.3v2h-1.4c-1.5,0-2.3,1-2.3,3.1c0,1.4,0.2,2.3,0.7,2.8c0.3,0.3,0.8,0.4,1.4,0.5h1.4v10.2c0,0.6,0,1,0.1,1.3
		c0,0.3,0.2,0.6,0.4,1c0.2,0.4,0.5,0.6,1,0.8s1.1,0.2,1.9,0.2s1.4-0.1,1.9-0.2c0.5-0.2,0.9-0.5,1.1-0.9c0.2-0.5,0.4-1.2,0.4-2.2v-10
		l2.5,0.2c1,0,1.8-0.2,2.3-0.5c0.4-0.2,0.6-0.5,0.8-1c0.2-0.5,0.2-1.1,0.2-1.9s-0.1-1.4-0.2-1.9C77.6,12.6,76.4,12.1,74.8,12.1z"/>
	<path class="st0" d="M87.3,14.1c0-1.7-1.6-3-3.6-3h-0.2c-2,0-3.6,1.4-3.6,3v18.6h7.4C87.4,32.7,87.4,14.1,87.3,14.1z"/>
	<circle class="st0" cx="83.8" cy="6.3" r="3.5"/>
	<path class="st1" d="M95.1,32.2c2.5,0.3,4.1,0.2,4.8-0.2c0.5-0.4,0.8-1.3,0.8-3c0-1.5-0.3-2.4-0.8-2.7C99.6,26,99.4,26,99.2,26
		s-0.5-0.1-1.1-0.1c-0.5,0-0.9-0.1-1-0.4c-0.2-0.2-0.2-0.8-0.2-1.7V6.1c0-0.6,0-1-0.1-1.3c0-0.3-0.2-0.7-0.4-1c-0.4-0.7-1.4-1-2.9-1
		c-1.6,0-2.6,0.3-3,1c-0.2,0.4-0.3,0.7-0.3,1s-0.1,0.7-0.1,1.3v18.2c0,2.7,0.4,4.7,1.1,6C91.8,31.3,93.1,32,95.1,32.2z"/>
	<path class="st1" d="M131.8,31.3c0.2-0.4,0.3-0.7,0.4-1c0-0.3,0.1-0.7,0.1-1.3v-6.7c0-3.6-0.7-6.2-2.1-7.8
		c-1.4-1.6-3.1-2.4-5.1-2.4c-0.9,0-1.8,0.2-2.7,0.7c-0.9,0.5-1.5,1-1.9,1.4c-0.4,0.4-0.7,0.8-1,1.2c-1.3-2.2-3.2-3.3-5.8-3.3
		c-1.7,0-3.1,0.9-4.3,2.7c0-0.9-0.2-1.5-0.7-2c-0.4-0.5-1.4-0.7-2.8-0.7s-2.3,0.3-2.7,1c-0.2,0.4-0.3,0.7-0.4,1
		c0,0.3-0.1,0.7-0.1,1.3v13.5c0,0.6,0,1.1,0.1,1.3c0,0.3,0.1,0.6,0.3,1c0.4,0.7,1.3,1,3,1c1.6,0,2.6-0.3,3-1c0.2-0.4,0.3-0.7,0.4-1
		c0-0.3,0.1-0.7,0.1-1.3v-6.6c0-2.2,0.8-3.3,2.3-3.3c1.6,0,2.4,1.1,2.4,3.3V29c0,0.6,0,1,0.1,1.3c0,0.3,0.1,0.6,0.3,1
		c0.4,0.7,1.3,1.1,3,1.1c1.6,0,2.6-0.3,3-1c0.2-0.4,0.3-0.7,0.4-1c0-0.3,0.1-0.7,0.1-1.3v-6.8c0-1.1,0.2-1.9,0.5-2.5
		s0.9-0.9,1.8-0.9c1.6,0,2.4,1.1,2.4,3.3v6.7c0,0.6,0,1,0.1,1.3c0,0.3,0.1,0.6,0.3,1c0.4,0.7,1.3,1.1,3,1.1
		C130.4,32.3,131.4,32,131.8,31.3z"/>
	<path class="st1" d="M148.9,20.9c-1.6-0.8-3.2-1.3-4.9-1.5s-2.6-0.7-2.6-1.5c0-0.6,0.8-0.8,2.3-0.8c1,0,1.9,0.2,2.7,0.6
		s1.4,0.6,1.7,0.6c0.6,0,1.2-0.4,1.7-1.3c0.6-0.9,0.8-1.6,0.8-2.3c0-0.6-0.4-1.1-1.3-1.5c-1.9-0.9-3.8-1.3-5.6-1.3
		c-5.5,0-8.3,2-8.3,6.1c0,1.4,0.2,2.5,0.7,3.5s1.1,1.7,1.8,2.2c1.6,1,3.2,1.6,4.8,1.8c1.7,0.2,2.6,0.6,2.6,1.1
		c0,0.6-0.8,0.9-2.3,0.9c-0.9,0-1.8-0.3-2.9-0.9c-1.1-0.6-1.9-0.9-2.5-0.9s-1.1,0.2-1.4,0.7c-1,1.4-1.5,2.4-1.5,3
		c0,0.7,0.2,1.2,0.7,1.5c2.3,1.4,4.6,2.1,7.1,2.1s4.5-0.4,6.2-1.2c0.9-0.5,1.6-1.2,2.1-2.1s0.7-2.1,0.7-3.4s-0.2-2.4-0.7-3.3
		C150.3,21.9,149.6,21.1,148.9,20.9z"/>
	<path class="st0" d="M175.4,24.9h3.3c0.8,0,1.5-0.1,2-0.3c0.3-0.2,0.5-0.5,0.7-0.9c0.1-0.4,0.2-1,0.2-1.7s-0.1-1.3-0.2-1.7
		c-0.1-0.4-0.4-0.8-0.8-1c-0.4-0.2-1.1-0.3-2-0.3h-3.1v-3.1c0-0.9-0.1-1.6-0.3-2.1c-0.2-0.3-0.5-0.6-0.9-0.7c-0.4-0.1-1-0.2-1.7-0.2
		s-1.3,0.1-1.7,0.2c-0.4,0.1-0.8,0.4-1,0.8c-0.2,0.4-0.3,1.1-0.3,2V19h-3.3c-0.9,0-1.6,0.1-2.1,0.3c-0.4,0.2-0.6,0.5-0.7,0.9
		c-0.1,0.4-0.2,1-0.2,1.7s0.1,1.3,0.2,1.7c0.1,0.4,0.4,0.8,0.8,1c0.4,0.2,1,0.3,1.8,0.3h3.3V28c0,0.9,0.1,1.6,0.3,2.1
		c0.2,0.3,0.5,0.6,0.9,0.7s1,0.2,1.7,0.2s1.3-0.1,1.7-0.2c0.4-0.1,0.8-0.4,1-0.8c0.2-0.4,0.3-1.1,0.3-2v-3.1H175.4z"/>
	<path class="st1" d="M74.8,44.8L72.3,45V43c0-0.6,0.5-1,1.4-1c0.5,0,0.8,0,1.1,0c0.8-0.1,1.3-0.3,1.7-0.7c0.4-0.5,0.7-1.4,0.7-2.6
		c0-1.6-0.3-2.6-1-3c-0.4-0.2-0.7-0.3-1-0.4c-0.4,0-0.9,0-1.5,0c-2.7,0-4.7,0.8-6.1,2.4c-1.4,1.6-2.1,3.4-2.1,5.3v2h-1.2
		C62.8,45,62,46,62,48c0,1.4,0.2,2.3,0.7,2.8c0.3,0.3,0.8,0.4,1.4,0.5h1.4v10.2c0,0.6,0,1,0.1,1.3c0,0.3,0.2,0.6,0.4,1
		c0.2,0.4,0.5,0.6,1,0.8c0.5,0.2,1.1,0.2,1.9,0.2s1.4-0.1,1.9-0.2c0.5-0.2,0.9-0.5,1.1-0.9c0.2-0.5,0.4-1.2,0.4-2.2V51.5l2.5,0.2
		c1,0,1.8-0.2,2.3-0.5c0.4-0.2,0.6-0.5,0.8-1c0.2-0.5,0.2-1.1,0.2-1.9c0-0.8-0.1-1.4-0.2-1.9C77.6,45.3,76.4,44.8,74.8,44.8z"/>
	<path class="st1" d="M93.8,45c-0.5-0.2-0.9-0.3-1.3-0.3c-0.4-0.1-0.9-0.1-1.5-0.1s-1.3,0.2-2.1,0.7c-0.8,0.4-1.3,0.8-1.6,1
		c-0.2,0.3-0.4,0.5-0.6,0.7c0-0.4-0.1-0.9-0.4-1.3c-0.4-0.6-1.3-0.9-2.9-0.9s-2.6,0.3-3,1c-0.2,0.4-0.3,0.7-0.3,1S80,47.6,80,48.2
		v13.5c0,0.5,0,0.9,0,1.1c0.1,0.7,0.3,1.3,0.7,1.6c0.5,0.4,1.4,0.7,2.6,0.7c1.6,0,2.6-0.3,3-1c0.2-0.4,0.3-0.7,0.4-1
		c0-0.3,0.1-0.7,0.1-1.3v-8.1c0-0.7,0.3-1.3,0.9-1.8s1.2-0.7,1.9-0.7c0.7,0,1.2,0.1,1.7,0.3c0.4,0.2,0.9,0.3,1.3,0.3
		c0.9,0,1.6-0.5,2.1-1.5s0.7-1.9,0.7-2.7s-0.2-1.4-0.5-1.8C94.8,45.5,94.3,45.2,93.8,45z"/>
	<path class="st1" d="M125.8,56c0.8-0.8,1.2-1.9,1.2-3.5s-0.4-3-1.3-4.4c-1.7-2.5-4.3-3.8-7.8-3.8c-3.1,0-5.7,1-7.8,2.9
		c-2.1,1.9-3.1,4.5-3.1,7.7c0,2.6,0.8,4.9,2.4,6.9c0.8,1.1,2,1.9,3.4,2.6c1.5,0.7,3.1,1,5,1c5.4,0,8.2-1.1,8.2-3.4
		c0-0.5-0.2-1.1-0.5-1.8c-0.6-1.2-1.3-1.7-2.1-1.7c-0.4,0-0.9,0.1-1.5,0.4l-0.4,0.2c-0.8,0.3-2,0.5-3.5,0.5c-0.8,0-1.7-0.2-2.5-0.7
		s-1.3-1.1-1.3-1.8h9.1C124.2,57,124.9,56.8,125.8,56z M118.8,53.7H114c0-0.8,0.4-1.5,1.2-2.2c0.8-0.7,1.6-1,2.5-1
		c0.8,0,1.5,0.2,1.9,0.5c0.4,0.4,0.7,0.8,0.7,1.4C120.3,53.2,119.8,53.7,118.8,53.7z"/>
	<path class="st1" d="M140.6,44.8c-1,0-2,0.3-2.9,0.9c-0.3,0.2-0.7,0.5-1,0.8c-0.4,0.3-0.6,0.6-0.7,0.8c0-0.6-0.1-1.1-0.4-1.6
		c-0.4-0.6-1.3-0.9-2.9-0.9c-1.6,0-2.6,0.3-3,1c-0.2,0.4-0.3,0.7-0.4,1c0,0.3-0.1,0.7-0.1,1.3v13.6c0,0.6,0,1,0.1,1.3
		c0,0.3,0.1,0.6,0.3,1c0.4,0.7,1.3,1,3,1c1.6,0,2.6-0.3,3-1c0.2-0.4,0.3-0.7,0.4-1c0-0.3,0.1-0.7,0.1-1.3v-6.8c0-1,0.3-1.8,0.9-2.4
		c0.6-0.6,1.4-0.9,2.5-0.9c1,0,1.8,0.3,2.4,0.9c0.6,0.6,0.9,1.4,0.9,2.5v6.7c0,0.9,0.1,1.5,0.2,2c0.3,0.9,1.3,1.4,3.1,1.4
		c1.6,0,2.6-0.3,3-1c0.2-0.4,0.3-0.7,0.3-1s0.1-0.7,0.1-1.3v-6.7c0-2.8-0.8-5.2-2.5-7.2C145.4,45.8,143.3,44.8,140.6,44.8z"/>
	<path class="st1" d="M172.1,36.3c-0.2-0.4-0.5-0.7-1-0.8c-0.5-0.2-1.1-0.2-1.9-0.2c-0.8,0-1.5,0.1-1.9,0.2c-0.5,0.2-0.8,0.4-1,0.8
		c-0.2,0.4-0.3,0.7-0.3,1s-0.1,0.7-0.1,1.3v8.1c-1-1.3-2.5-1.9-4.4-1.9c-2.3,0-4.4,1-6.3,3c-1.9,2-2.9,4.4-2.9,7c0,2.7,0.9,5,2.8,7
		c1.9,2,4,3,6.3,3c1.9,0,3.4-0.6,4.5-1.8c0.2,1.3,1.2,1.9,3,1.9s2.9-0.3,3.2-1c0.2-0.4,0.3-0.7,0.4-1c0-0.3,0.1-0.7,0.1-1.3V38.8
		c0-0.6,0-1-0.1-1.3S172.4,36.8,172.1,36.3z M164.8,57.3c-0.6,0.7-1.4,1-2.4,1c-0.9,0-1.8-0.3-2.4-1c-0.7-0.7-1-1.5-1-2.3
		s0.3-1.6,0.9-2.3c0.6-0.7,1.4-1.1,2.5-1.1c1,0,1.8,0.4,2.4,1.1c0.6,0.7,0.9,1.5,0.9,2.3C165.8,55.8,165.4,56.5,164.8,57.3z"/>
	<path class="st1" d="M189.3,53.5c-1.6-0.8-3.2-1.3-4.9-1.5s-2.6-0.7-2.6-1.5c0-0.6,0.8-0.8,2.3-0.8c1,0,1.9,0.2,2.7,0.6
		c0.8,0.4,1.4,0.6,1.7,0.6c0.6,0,1.2-0.4,1.7-1.3c0.6-0.9,0.8-1.6,0.8-2.3c0-0.6-0.4-1.1-1.3-1.5c-1.9-0.9-3.8-1.3-5.6-1.3
		c-5.5,0-8.3,2-8.3,6.1c0,1.4,0.2,2.5,0.7,3.5s1.1,1.7,1.8,2.2c1.6,1,3.2,1.6,4.8,1.8c1.7,0.2,2.6,0.6,2.6,1.1
		c0,0.6-0.8,0.9-2.3,0.9c-0.9,0-1.8-0.3-2.9-0.9c-1.1-0.6-1.9-0.9-2.5-0.9s-1.1,0.2-1.4,0.7c-1,1.4-1.5,2.4-1.5,3
		c0,0.7,0.2,1.2,0.7,1.5c2.3,1.4,4.6,2.1,7.1,2.1s4.5-0.4,6.2-1.2c0.9-0.5,1.6-1.2,2.1-2.1s0.7-2.1,0.7-3.4c0-1.3-0.2-2.4-0.7-3.3
		C190.6,54.5,189.9,53.8,189.3,53.5z"/>
	<path class="st0" d="M101.2,43.5H101c-2,0-3.6,1.4-3.6,3v18.6h7.4V46.5C104.8,45,103.2,43.5,101.2,43.5z"/>
	<circle class="st0" cx="101.3" cy="38.8" r="3.5"/>
</g>
</svg>
