<?xml version="1.0" encoding="utf-8"?>
<!-- Generator: Adobe Illustrator 22.1.0, SVG Export Plug-In . SVG Version: 6.00 Build 0)  -->
<svg version="1.1" id="Layer_1" xmlns="http://www.w3.org/2000/svg" xmlns:xlink="http://www.w3.org/1999/xlink" x="0px" y="0px"
	 viewBox="0 0 809.9 99.1" style="enable-background:new 0 0 809.9 99.1;" xml:space="preserve">
<style type="text/css">
	.st0{fill:#2991E2;stroke:#000000;stroke-miterlimit:10;}
	.st1{fill:#FFFFFF;}
	.st2{fill:#F7811E;}
</style>
<rect x="0.5" y="0.5" class="st0" width="808.9" height="98.1"/>
<path class="st1" d="M14.3,89.2h63.5V12.4H14.3V89.2z M65.7,15.4c0-0.4,0.3-0.7,0.7-0.7H74h0.2c0.4,0,0.7,0.3,0.7,0.7v7.8
	c0,0.4-0.3,0.7-0.7,0.7H74h-7.6c-0.4,0-0.7-0.3-0.7-0.7V15.4z M65.7,28c0-0.4,0.3-0.7,0.7-0.7h7.8c0.4,0,0.7,0.3,0.7,0.7v7.8
	c0,0.4-0.3,0.7-0.7,0.7h-7.8c-0.4,0-0.7-0.3-0.7-0.7V28z M65.7,40.6c0-0.4,0.3-0.7,0.7-0.7h7.8c0.4,0,0.7,0.3,0.7,0.7v7.8
	c0,0.4-0.3,0.7-0.7,0.7h-7.8c-0.4,0-0.7-0.3-0.7-0.7V40.6z M65.7,53.2c0-0.4,0.3-0.7,0.7-0.7h7.8c0.4,0,0.7,0.3,0.7,0.7V61
	c0,0.4-0.3,0.7-0.7,0.7h-7.8c-0.4,0-0.7-0.3-0.7-0.7V53.2z M65.7,65.9c0-0.4,0.3-0.7,0.7-0.7h7.8c0.4,0,0.7,0.3,0.7,0.7v7.8
	c0,0.4-0.3,0.7-0.7,0.7h-7.8c-0.4,0-0.7-0.3-0.7-0.7V65.9z M65.7,78.5c0-0.4,0.3-0.7,0.7-0.7h7.8c0.4,0,0.7,0.3,0.7,0.7v7.8
	c0,0.4-0.3,0.7-0.7,0.7h-7.8c-0.4,0-0.7-0.3-0.7-0.7V78.5z M30.1,15.4c0-0.4,0.3-0.7,0.7-0.7h30.6c0.4,0,0.7,0.3,0.7,0.7V46
	c0,0.4-0.3,0.7-0.7,0.7H30.7c-0.4,0-0.7-0.3-0.7-0.7V15.4H30.1z M30.1,55.7c0-0.4,0.3-0.7,0.7-0.7h30.6c0.4,0,0.7,0.3,0.7,0.7v30.6
	c0,0.4-0.3,0.7-0.7,0.7H30.7c-0.4,0-0.7-0.3-0.7-0.7V55.7H30.1z M17.3,15.4c0-0.4,0.3-0.7,0.7-0.7h7.8c0.4,0,0.7,0.3,0.7,0.7v7.8
	c0,0.4-0.3,0.7-0.7,0.7h-7.9c-0.4,0-0.7-0.3-0.7-0.7L17.3,15.4L17.3,15.4z M17.3,28c0-0.4,0.3-0.7,0.7-0.7h7.8
	c0.4,0,0.7,0.3,0.7,0.7v7.8c0,0.4-0.3,0.7-0.7,0.7h-7.9c-0.4,0-0.7-0.3-0.7-0.7L17.3,28L17.3,28z M17.3,40.6c0-0.4,0.3-0.7,0.7-0.7
	h7.8c0.4,0,0.7,0.3,0.7,0.7v7.8c0,0.4-0.3,0.7-0.7,0.7h-7.9c-0.4,0-0.7-0.3-0.7-0.7L17.3,40.6L17.3,40.6z M17.3,53.2
	c0-0.4,0.3-0.7,0.7-0.7h7.8c0.4,0,0.7,0.3,0.7,0.7V61c0,0.4-0.3,0.7-0.7,0.7h-7.9c-0.4,0-0.7-0.3-0.7-0.7L17.3,53.2L17.3,53.2z
	 M17.3,65.9c0-0.4,0.3-0.7,0.7-0.7h7.8c0.4,0,0.7,0.3,0.7,0.7v7.8c0,0.4-0.3,0.7-0.7,0.7h-7.9c-0.4,0-0.7-0.3-0.7-0.7L17.3,65.9
	L17.3,65.9z M17.3,78.5c0-0.4,0.3-0.7,0.7-0.7h7.8c0.4,0,0.7,0.3,0.7,0.7v7.8c0,0.4-0.3,0.7-0.7,0.7h-7.9c-0.4,0-0.7-0.3-0.7-0.7
	L17.3,78.5L17.3,78.5z"/>
<path class="st1" d="M103.9,23.5l-3.1,0.3v-2.6c0-0.8,0.6-1.2,1.7-1.2c0.6,0,1,0,1.3,0c0.9-0.1,1.6-0.3,2.1-0.9
	c0.5-0.7,0.8-1.7,0.8-3.3c0-2-0.4-3.2-1.3-3.6c-0.5-0.3-0.9-0.4-1.3-0.4s-0.9-0.1-1.6-0.1c-3.3,0-5.8,1-7.5,3s-2.6,4.2-2.6,6.6v2.5
	h-1.6c-1.9,0-2.8,1.3-2.8,3.9c0,1.7,0.3,2.9,0.9,3.5c0.3,0.3,0.9,0.5,1.7,0.6h1.9v12.5c0,0.7,0,1.3,0.1,1.7c0,0.4,0.2,0.8,0.4,1.3
	c0.3,0.5,0.7,0.8,1.3,1c0.6,0.2,1.4,0.3,2.3,0.3c1,0,1.8-0.1,2.4-0.3s1.1-0.6,1.4-1.2c0.3-0.6,0.4-1.5,0.4-2.7V31.6l3,0.2
	c1.3,0,2.2-0.2,2.9-0.6c0.4-0.3,0.8-0.7,1-1.3c0.2-0.6,0.3-1.4,0.3-2.3c0-1-0.1-1.8-0.3-2.4C107.3,24.1,106.1,23.5,103.9,23.5z"/>
<path class="st1" d="M128.9,48.1c3.1,0.4,5,0.3,5.9-0.3c0.6-0.4,0.9-1.7,0.9-3.6c0-1.8-0.3-2.9-0.9-3.4c-0.3-0.2-0.6-0.4-0.8-0.4
	c-0.2,0-0.7-0.1-1.3-0.1c-0.6,0-1.1-0.1-1.3-0.4c-0.2-0.3-0.3-1-0.3-2.2V15.9c0-0.7,0-1.3-0.1-1.7c0-0.4-0.2-0.8-0.4-1.3
	c-0.5-0.9-1.7-1.3-3.6-1.3c-2,0-3.2,0.4-3.7,1.3c-0.2,0.5-0.4,0.9-0.4,1.3s-0.1,0.9-0.1,1.6v22.5c0,3.4,0.4,5.8,1.3,7.4
	C124.9,47,126.5,47.8,128.9,48.1z"/>
<path class="st1" d="M174.2,47.1c0.3-0.5,0.4-0.9,0.4-1.3c0-0.4,0.1-0.9,0.1-1.6v-8.3c0-4.5-0.9-7.7-2.6-9.6
	c-1.7-1.9-3.8-2.9-6.3-2.9c-1.1,0-2.2,0.3-3.3,0.9s-1.9,1.2-2.3,1.7c-0.5,0.5-0.9,1-1.3,1.5c-1.6-2.7-4-4.1-7.2-4.1
	c-2.1,0-3.9,1.1-5.3,3.4c0-1.1-0.3-1.9-0.8-2.5s-1.7-0.9-3.5-0.9s-2.9,0.4-3.4,1.3c-0.3,0.4-0.4,0.8-0.4,1.2c0,0.4-0.1,0.9-0.1,1.6
	v16.6c0,0.8,0,1.3,0.1,1.7c0,0.3,0.2,0.8,0.4,1.2c0.4,0.9,1.7,1.3,3.6,1.3c2,0,3.2-0.4,3.7-1.2c0.3-0.5,0.4-0.9,0.4-1.3
	c0-0.4,0.1-0.9,0.1-1.6v-8.4c0-2.7,0.9-4.1,2.8-4.1c2,0,2.9,1.4,2.9,4.1v8.3c0,0.7,0,1.3,0.1,1.6c0,0.4,0.2,0.8,0.4,1.3
	c0.4,0.9,1.7,1.3,3.6,1.3c2,0,3.2-0.4,3.7-1.3c0.3-0.5,0.4-0.9,0.4-1.2s0.1-0.9,0.1-1.7v-8.3c0-1.3,0.2-2.3,0.6-3.1
	c0.4-0.7,1.1-1.1,2.2-1.1c2,0,2.9,1.4,2.9,4.1V44c0,0.7,0,1.3,0.1,1.6c0,0.4,0.2,0.8,0.4,1.3c0.4,0.9,1.7,1.3,3.6,1.3
	C172.6,48.3,173.8,47.9,174.2,47.1z"/>
<path class="st1" d="M195.3,34.2c-2-1-4-1.6-6-1.8c-2.1-0.3-3.2-0.9-3.2-1.8c0-0.7,0.9-1,2.8-1c1.2,0,2.3,0.2,3.3,0.7
	s1.7,0.7,2.1,0.7c0.7,0,1.4-0.6,2.1-1.7c0.7-1.1,1-2,1-2.8s-0.6-1.4-1.7-1.9c-2.4-1.1-4.7-1.6-6.9-1.6c-6.8,0-10.3,2.5-10.3,7.5
	c0,1.7,0.3,3.1,0.9,4.3c0.6,1.2,1.4,2.1,2.3,2.7c2,1.2,3.9,1.9,5.9,2.2c2.1,0.3,3.2,0.7,3.2,1.3c0,0.8-1,1.1-2.9,1.1
	c-1.1,0-2.3-0.4-3.6-1.2s-2.4-1.2-3.1-1.2c-0.8,0-1.3,0.3-1.7,0.8c-1.2,1.7-1.8,2.9-1.8,3.7s0.3,1.4,0.9,1.8
	c2.8,1.8,5.7,2.6,8.8,2.6c3,0,5.6-0.5,7.6-1.5c1.1-0.6,2-1.4,2.6-2.6c0.6-1.1,0.9-2.5,0.9-4.2c0-1.6-0.3-3-0.9-4.1
	C197,35.4,196.3,34.6,195.3,34.2z"/>
<path class="st2" d="M227.9,39.1h4.1c1,0,1.8-0.1,2.4-0.4c0.4-0.2,0.6-0.6,0.8-1.1s0.2-1.3,0.2-2.2s-0.1-1.6-0.3-2.2
	c-0.2-0.5-0.5-0.9-1-1.2c-0.5-0.3-1.3-0.4-2.4-0.4h-3.8v-3.8c0-1.1-0.1-2-0.4-2.6c-0.2-0.4-0.6-0.7-1.2-0.9
	c-0.6-0.2-1.3-0.3-2.2-0.3s-1.6,0.1-2.2,0.3c-0.6,0.2-1,0.5-1.2,1c-0.3,0.5-0.4,1.3-0.4,2.4v3.8h-3.8c-1.1,0-2,0.1-2.6,0.4
	c-0.4,0.2-0.7,0.6-0.9,1.2c-0.2,0.6-0.3,1.3-0.3,2.2c0,0.9,0.1,1.6,0.2,2.2c0.2,0.6,0.5,1,0.9,1.2c0.5,0.3,1.2,0.4,2.3,0.4h4.1v3.8
	c0,1.1,0.1,2,0.4,2.6c0.2,0.4,0.6,0.7,1.1,0.9s1.3,0.3,2.2,0.3s1.6-0.1,2.2-0.3c0.5-0.2,0.9-0.5,1.2-1s0.4-1.3,0.4-2.4v-3.9H227.9z"
	/>
<path class="st1" d="M103.9,63.7l-3.1,0.3v-2.6c0-0.8,0.6-1.2,1.7-1.2c0.6,0,1,0,1.3,0c0.9-0.1,1.6-0.3,2.1-0.9
	c0.5-0.7,0.8-1.7,0.8-3.3c0-2-0.4-3.2-1.3-3.6c-0.5-0.3-0.9-0.4-1.3-0.4s-0.9-0.1-1.6-0.1c-3.3,0-5.8,1-7.5,3s-2.6,4.2-2.6,6.6V64
	h-1.6c-1.9,0-2.8,1.3-2.8,3.9c0,1.7,0.3,2.9,0.9,3.5c0.3,0.3,0.9,0.5,1.7,0.6h1.9v12.5c0,0.7,0,1.3,0.1,1.7c0,0.4,0.2,0.8,0.4,1.3
	c0.3,0.5,0.7,0.8,1.3,1c0.6,0.2,1.4,0.3,2.3,0.3c1,0,1.8-0.1,2.4-0.3c0.6-0.2,1.1-0.6,1.4-1.2s0.4-1.5,0.4-2.7V71.9l3,0.2
	c1.3,0,2.2-0.2,2.9-0.6c0.4-0.3,0.8-0.7,1-1.3c0.2-0.6,0.3-1.4,0.3-2.3c0-1-0.1-1.8-0.3-2.4C107.3,64.3,106.1,63.7,103.9,63.7z"/>
<path class="st1" d="M127.5,64c-0.6-0.2-1.2-0.3-1.7-0.4c-0.5-0.1-1.1-0.1-1.9-0.1c-0.7,0-1.6,0.3-2.6,0.8c-1,0.5-1.6,1-1.9,1.3
	s-0.5,0.6-0.7,0.8c0-0.5-0.2-1.1-0.5-1.6c-0.5-0.7-1.7-1.1-3.5-1.1c-2,0-3.2,0.4-3.7,1.3c-0.2,0.4-0.4,0.8-0.4,1.2
	c0,0.4-0.1,0.9-0.1,1.6v16.6c0,0.6,0,1.1,0,1.4c0.1,0.9,0.3,1.6,0.9,2c0.7,0.5,1.7,0.8,3.3,0.8c2,0,3.2-0.4,3.7-1.2
	c0.3-0.5,0.4-0.9,0.4-1.3s0.1-0.9,0.1-1.6v-9.9c0-0.9,0.4-1.6,1.1-2.2s1.5-0.9,2.4-0.9s1.5,0.1,2.1,0.4c0.5,0.3,1.1,0.4,1.6,0.4
	c1.1,0,2-0.6,2.6-1.8c0.6-1.2,0.9-2.3,0.9-3.3s-0.2-1.7-0.6-2.2C128.6,64.5,128.1,64.2,127.5,64z"/>
<path class="st1" d="M166.8,77.5c1-0.9,1.4-2.4,1.4-4.3s-0.5-3.7-1.6-5.4c-2-3.1-5.3-4.6-9.6-4.6c-3.8,0-7.1,1.2-9.6,3.6
	c-2.6,2.4-3.9,5.6-3.9,9.5c0,3.2,1,6,3,8.6c1,1.3,2.4,2.4,4.2,3.2c1.8,0.8,3.9,1.2,6.2,1.2c6.7,0,10.1-1.4,10.1-4.2
	c0-0.6-0.2-1.3-0.6-2.2c-0.7-1.4-1.6-2.1-2.6-2.1c-0.5,0-1.1,0.2-1.9,0.5l-0.5,0.2c-1,0.4-2.5,0.6-4.3,0.6c-1,0-2.1-0.3-3.1-0.9
	s-1.6-1.3-1.6-2.2h11.2C164.8,78.9,165.9,78.4,166.8,77.5z M158.3,74.6h-6c0-0.9,0.5-1.8,1.5-2.7c1-0.8,2-1.3,3-1.3s1.8,0.2,2.4,0.7
	c0.6,0.4,0.8,1,0.8,1.7C160.1,74.1,159.5,74.6,158.3,74.6z"/>
<path class="st1" d="M185.2,63.7c-1.3,0-2.5,0.4-3.5,1.1c-0.4,0.3-0.8,0.6-1.3,1c-0.4,0.4-0.7,0.7-0.9,0.9c0-0.8-0.2-1.4-0.5-1.9
	c-0.4-0.7-1.6-1.1-3.5-1.1c-2,0-3.2,0.4-3.6,1.2c-0.3,0.4-0.4,0.8-0.4,1.2c0,0.4-0.1,0.9-0.1,1.6v16.7c0,0.7,0,1.3,0.1,1.6
	c0,0.4,0.2,0.8,0.4,1.3c0.4,0.9,1.7,1.3,3.6,1.3c2,0,3.2-0.4,3.6-1.3c0.3-0.4,0.4-0.8,0.4-1.2c0-0.4,0.1-0.9,0.1-1.6v-8.4
	c0-1.2,0.4-2.2,1.2-3s1.8-1.1,3-1.1s2.2,0.4,3,1.1c0.7,0.7,1.1,1.7,1.1,3v8.3c0,1.1,0.1,1.9,0.3,2.4c0.3,1.2,1.6,1.7,3.9,1.7
	c2,0,3.2-0.4,3.7-1.3c0.2-0.4,0.4-0.8,0.4-1.2c0-0.4,0.1-0.9,0.1-1.6v-8.3c0-3.5-1-6.4-3.1-8.8C191,64.9,188.3,63.7,185.2,63.7z"/>
<path class="st1" d="M224,53.3c-0.2-0.5-0.7-0.8-1.3-1s-1.4-0.3-2.4-0.3s-1.8,0.1-2.4,0.3c-0.6,0.2-1,0.5-1.3,1
	c-0.2,0.5-0.4,0.9-0.4,1.2c0,0.4-0.1,0.9-0.1,1.6V66c-1.3-1.6-3.1-2.4-5.4-2.4c-2.8,0-5.4,1.2-7.7,3.7s-3.5,5.4-3.5,8.7
	s1.2,6.2,3.5,8.6c2.3,2.5,4.9,3.7,7.8,3.7c2.4,0,4.2-0.8,5.5-2.3c0.3,1.5,1.5,2.3,3.7,2.3s3.5-0.4,4-1.3c0.3-0.4,0.4-0.8,0.4-1.2
	c0-0.4,0.1-0.9,0.1-1.6v-28c0-0.7,0-1.3-0.1-1.6C224.3,54.2,224.2,53.8,224,53.3z M214.9,79c-0.8,0.9-1.7,1.3-2.9,1.3
	s-2.2-0.4-3-1.3s-1.2-1.8-1.2-2.8s0.4-2,1.1-2.9c0.8-0.9,1.8-1.3,3-1.3c1.3,0,2.3,0.4,3,1.3s1.1,1.8,1.1,2.9
	C216,77.2,215.7,78.1,214.9,79z"/>
<path class="st1" d="M245.1,74.4c-2-1-4-1.6-6.1-1.8c-2.1-0.3-3.2-0.9-3.2-1.8c0-0.7,0.9-1,2.8-1c1.2,0,2.3,0.2,3.3,0.7
	s1.7,0.7,2.1,0.7c0.7,0,1.4-0.6,2.1-1.7c0.7-1.1,1-2,1-2.8c0-0.8-0.6-1.4-1.7-1.9c-2.4-1.1-4.7-1.6-6.9-1.6
	c-6.8,0-10.3,2.5-10.3,7.5c0,1.7,0.3,3.1,0.9,4.3c0.6,1.2,1.4,2.1,2.3,2.7c2,1.2,3.9,1.9,5.9,2.2c2.1,0.3,3.2,0.7,3.2,1.3
	c0,0.8-1,1.1-2.9,1.1c-1.1,0-2.3-0.4-3.6-1.2c-1.3-0.8-2.4-1.2-3.1-1.2c-0.8,0-1.3,0.3-1.7,0.8c-1.2,1.7-1.8,2.9-1.8,3.7
	c0,0.8,0.3,1.4,0.9,1.8c2.8,1.8,5.7,2.6,8.8,2.6c3,0,5.6-0.5,7.6-1.5c1.1-0.6,2-1.4,2.6-2.6c0.6-1.1,0.9-2.5,0.9-4.2
	c0-1.6-0.3-3-0.9-4.1C246.7,75.6,246,74.9,245.1,74.4z"/>
<g>
	<path class="st2" d="M119.6,25.8c0-2-2-3.7-4.4-3.7h-0.3c-2.4,0-4.4,1.7-4.4,3.7v22.9h9.1C119.6,48.7,119.6,25.8,119.6,25.8z"/>
	<circle class="st2" cx="115" cy="16.1" r="4.4"/>
</g>
<g>
	<path class="st2" d="M141.1,65.9c0-2-2-3.7-4.4-3.7h-0.3c-2.4,0-4.4,1.7-4.4,3.7v22.9h9.1V65.9z"/>
	<circle class="st2" cx="136.6" cy="56.2" r="4.4"/>
</g>
</svg>
