<?xml version="1.0" encoding="utf-8"?>
<!-- Generator: Adobe Illustrator 21.1.0, SVG Export Plug-In . SVG Version: 6.00 Build 0)  -->
<svg version="1.1" id="Layer_1" xmlns="http://www.w3.org/2000/svg" xmlns:xlink="http://www.w3.org/1999/xlink" x="0px" y="0px"
	 viewBox="0 0 296.5 103.3" style="enable-background:new 0 0 296.5 103.3;" xml:space="preserve">
<style type="text/css">
	.st0{fill:#FFFFFF;}
	.st1{fill:#F7811E;}
</style>
<g>
	<path class="st0" d="M5.5,98.9h76.9v-93H5.5V98.9z M67.8,9.5c0-0.4,0.4-0.8,0.8-0.8h9.2H78c0.4,0,0.8,0.4,0.8,0.8v9.4
		c0,0.4-0.4,0.8-0.8,0.8h-0.3h-9.2c-0.4,0-0.8-0.4-0.8-0.8V9.5z M67.8,24.8c0-0.4,0.4-0.8,0.8-0.8H78c0.4,0,0.8,0.4,0.8,0.8v9.4
		c0,0.4-0.4,0.8-0.8,0.8h-9.4c-0.4,0-0.8-0.4-0.8-0.8V24.8z M67.8,40.1c0-0.4,0.4-0.8,0.8-0.8H78c0.4,0,0.8,0.4,0.8,0.8v9.4
		c0,0.4-0.4,0.8-0.8,0.8h-9.4c-0.4,0-0.8-0.4-0.8-0.8V40.1z M67.8,55.3c0-0.4,0.4-0.8,0.8-0.8H78c0.4,0,0.8,0.4,0.8,0.8v9.4
		c0,0.4-0.4,0.8-0.8,0.8h-9.4c-0.4,0-0.8-0.4-0.8-0.8V55.3z M67.8,70.6c0-0.4,0.4-0.8,0.8-0.8H78c0.4,0,0.8,0.4,0.8,0.8V80
		c0,0.4-0.4,0.8-0.8,0.8h-9.4c-0.4,0-0.8-0.4-0.8-0.8V70.6z M67.8,85.9c0-0.4,0.4-0.8,0.8-0.8H78c0.4,0,0.8,0.4,0.8,0.8v9.4
		c0,0.4-0.4,0.8-0.8,0.8h-9.4c-0.4,0-0.8-0.4-0.8-0.8V85.9z M24.7,9.5c0-0.4,0.4-0.8,0.8-0.8h37c0.4,0,0.8,0.4,0.8,0.8v37
		c0,0.4-0.4,0.8-0.8,0.8h-37c-0.4,0-0.8-0.4-0.8-0.8V9.5z M24.7,58.3c0-0.4,0.4-0.8,0.8-0.8h37c0.4,0,0.8,0.4,0.8,0.8v37
		c0,0.4-0.4,0.8-0.8,0.8h-37c-0.4,0-0.8-0.4-0.8-0.8V58.3z M9.1,9.5c0-0.4,0.4-0.8,0.8-0.8h9.4c0.4,0,0.8,0.4,0.8,0.8v9.4
		c0,0.4-0.4,0.8-0.8,0.8H9.9c-0.4,0-0.8-0.4-0.8-0.8V9.5z M9.1,24.8c0-0.4,0.4-0.8,0.8-0.8h9.4c0.4,0,0.8,0.4,0.8,0.8v9.4
		c0,0.4-0.4,0.8-0.8,0.8H9.9c-0.4,0-0.8-0.4-0.8-0.8V24.8z M9.1,40.1c0-0.4,0.4-0.8,0.8-0.8h9.4c0.4,0,0.8,0.4,0.8,0.8v9.4
		c0,0.4-0.4,0.8-0.8,0.8H9.9c-0.4,0-0.8-0.4-0.8-0.8V40.1z M9.1,55.3c0-0.4,0.4-0.8,0.8-0.8h9.4c0.4,0,0.8,0.4,0.8,0.8v9.4
		c0,0.4-0.4,0.8-0.8,0.8H9.9c-0.4,0-0.8-0.4-0.8-0.8V55.3z M9.1,70.6c0-0.4,0.4-0.8,0.8-0.8h9.4c0.4,0,0.8,0.4,0.8,0.8V80
		c0,0.4-0.4,0.8-0.8,0.8H9.9c-0.4,0-0.8-0.4-0.8-0.8V70.6z M9.1,85.9c0-0.4,0.4-0.8,0.8-0.8h9.4c0.4,0,0.8,0.4,0.8,0.8v9.4
		c0,0.4-0.4,0.8-0.8,0.8H9.9c-0.4,0-0.8-0.4-0.8-0.8V85.9z"/>
	<path class="st0" d="M114.1,19.3l-3.7,0.3v-3.1c0-1,0.7-1.4,2.1-1.4c0.7,0,1.3,0,1.6,0c1.1-0.1,2-0.4,2.5-1c0.6-0.8,1-2.1,1-4
		c0-2.4-0.5-3.9-1.5-4.4c-0.6-0.3-1.1-0.5-1.5-0.5c-0.4-0.1-1.1-0.1-2-0.1c-4,0-7,1.2-9.1,3.6c-2.1,2.4-3.1,5-3.1,8v3h-1.9
		c-2.3,0-3.4,1.6-3.4,4.7c0,2.1,0.4,3.5,1.1,4.2c0.4,0.4,1.1,0.6,2.1,0.7h2.1v15.2c0,0.9,0,1.5,0.1,2c0.1,0.5,0.2,1,0.5,1.5
		c0.3,0.6,0.8,1,1.5,1.2c0.7,0.2,1.7,0.4,2.8,0.4c1.2,0,2.1-0.1,2.9-0.3c0.7-0.2,1.3-0.7,1.7-1.4c0.4-0.7,0.5-1.8,0.5-3.2V29.1
		l3.7,0.2c1.5,0,2.7-0.2,3.5-0.7c0.5-0.3,0.9-0.8,1.2-1.5c0.2-0.7,0.4-1.7,0.4-2.8c0-1.2-0.1-2.1-0.3-2.9
		C118.3,20,116.7,19.3,114.1,19.3z"/>
	<path class="st0" d="M144.4,49.2c3.7,0.5,6.1,0.3,7.1-0.3c0.8-0.5,1.1-2,1.1-4.4c0-2.2-0.4-3.6-1.1-4.1c-0.4-0.3-0.7-0.4-1-0.5
		c-0.3-0.1-0.8-0.1-1.6-0.1c-0.8,0-1.3-0.2-1.5-0.5c-0.2-0.4-0.3-1.2-0.3-2.6V10.1c0-0.9,0-1.5-0.1-2c-0.1-0.5-0.2-1-0.5-1.5
		c-0.6-1-2-1.5-4.4-1.5c-2.4,0-3.9,0.5-4.5,1.5c-0.3,0.6-0.4,1.1-0.5,1.5c-0.1,0.4-0.1,1.1-0.1,2v27.3c0,4.1,0.5,7.1,1.6,8.9
		C139.5,47.8,141.4,48.8,144.4,49.2z"/>
	<path class="st0" d="M199.3,47.8c0.3-0.6,0.5-1.1,0.5-1.5c0.1-0.4,0.1-1.1,0.1-2v-10c0-5.4-1-9.3-3.1-11.7
		c-2.1-2.3-4.6-3.5-7.7-3.5c-1.4,0-2.7,0.4-4,1.1c-1.3,0.7-2.2,1.4-2.8,2.1c-0.6,0.6-1.1,1.2-1.5,1.8c-1.9-3.3-4.8-5-8.7-5
		c-2.5,0-4.7,1.4-6.5,4.1c0-1.3-0.3-2.3-1-3c-0.6-0.7-2-1-4.2-1c-2.1,0-3.5,0.5-4.1,1.5c-0.3,0.5-0.5,1-0.5,1.5
		c-0.1,0.4-0.1,1.1-0.1,2v20.2c0,0.9,0,1.6,0.1,2c0.1,0.4,0.2,0.9,0.5,1.5c0.5,1,2,1.5,4.4,1.5c2.4,0,3.9-0.5,4.5-1.5
		c0.3-0.6,0.5-1.1,0.5-1.5c0.1-0.4,0.1-1.1,0.1-2V34.3c0-3.3,1.1-5,3.4-5c2.4,0,3.6,1.7,3.6,5v10c0,0.9,0,1.5,0.1,2
		c0.1,0.4,0.2,0.9,0.5,1.5c0.5,1.1,2,1.6,4.4,1.6c2.4,0,3.9-0.5,4.5-1.5c0.3-0.6,0.5-1.1,0.5-1.5c0.1-0.4,0.1-1.1,0.1-2v-10
		c0-1.6,0.2-2.8,0.7-3.7c0.5-0.9,1.4-1.3,2.7-1.3c2.4,0,3.6,1.7,3.6,5v10c0,0.9,0,1.5,0.1,2c0.1,0.4,0.2,0.9,0.5,1.5
		c0.5,1.1,2,1.6,4.4,1.6C197.3,49.4,198.8,48.9,199.3,47.8z"/>
	<path class="st0" d="M224.9,32.2c-2.4-1.2-4.8-1.9-7.3-2.2c-2.6-0.3-3.9-1.1-3.9-2.2c0-0.8,1.1-1.3,3.4-1.3c1.5,0,2.8,0.3,4,0.9
		c1.2,0.6,2.1,0.9,2.5,0.9c0.9,0,1.7-0.7,2.6-2c0.8-1.3,1.3-2.5,1.3-3.4c0-0.9-0.7-1.7-2-2.3c-2.9-1.3-5.7-1.9-8.4-1.9
		c-8.3,0-12.4,3-12.4,9c0,2,0.4,3.8,1.1,5.2c0.7,1.5,1.6,2.5,2.7,3.2c2.4,1.5,4.8,2.3,7.2,2.7c2.6,0.3,3.8,0.9,3.8,1.6
		c0,0.9-1.2,1.4-3.5,1.4c-1.3,0-2.7-0.5-4.4-1.4c-1.6-0.9-2.9-1.4-3.8-1.4c-0.9,0-1.6,0.3-2,1c-1.5,2-2.2,3.5-2.2,4.5
		c0,1,0.4,1.7,1.1,2.2c3.4,2.1,6.9,3.2,10.6,3.2c3.7,0,6.7-0.6,9.2-1.8c1.3-0.7,2.4-1.7,3.1-3.1c0.7-1.4,1.1-3.1,1.1-5.1
		c0-2-0.4-3.6-1.1-5C226.9,33.7,226,32.7,224.9,32.2z"/>
	<path class="st1" d="M264.3,38.2h4.9c1.3,0,2.2-0.2,2.9-0.5c0.5-0.3,0.8-0.7,1-1.4c0.2-0.6,0.3-1.5,0.3-2.6c0-1.1-0.1-2-0.3-2.6
		c-0.2-0.6-0.6-1.1-1.2-1.5c-0.6-0.3-1.6-0.5-2.9-0.5h-4.6v-4.6c0-1.4-0.2-2.4-0.5-3.1c-0.3-0.5-0.7-0.8-1.4-1.1
		c-0.7-0.2-1.5-0.3-2.6-0.3c-1.1,0-1.9,0.1-2.6,0.3c-0.7,0.2-1.2,0.6-1.5,1.2c-0.3,0.6-0.5,1.6-0.5,2.9v4.6h-4.6
		c-1.4,0-2.4,0.2-3.1,0.5c-0.5,0.3-0.9,0.7-1.1,1.4c-0.2,0.7-0.3,1.5-0.3,2.6c0,1.1,0.1,1.9,0.3,2.6c0.2,0.7,0.6,1.2,1.1,1.5
		c0.6,0.3,1.5,0.5,2.7,0.5h5v4.6c0,1.4,0.2,2.4,0.5,3.1c0.3,0.5,0.7,0.9,1.4,1.1c0.6,0.2,1.5,0.3,2.6,0.3s2-0.1,2.6-0.3
		c0.6-0.2,1.1-0.6,1.5-1.2c0.3-0.6,0.5-1.6,0.5-2.9V38.2z"/>
	<path class="st0" d="M114.1,68l-3.7,0.3v-3.1c0-1,0.7-1.4,2.1-1.4c0.7,0,1.3,0,1.6,0c1.1-0.1,2-0.4,2.5-1c0.6-0.8,1-2.1,1-4
		c0-2.4-0.5-3.9-1.5-4.4c-0.6-0.3-1.1-0.5-1.5-0.5c-0.4-0.1-1.1-0.1-2-0.1c-4,0-7,1.2-9.1,3.6c-2.1,2.4-3.1,5-3.1,8v3h-1.9
		c-2.3,0-3.4,1.6-3.4,4.7c0,2.1,0.4,3.5,1.1,4.2c0.4,0.4,1.1,0.6,2.1,0.7h2.1v15.2c0,0.9,0,1.5,0.1,2c0.1,0.5,0.2,1,0.5,1.5
		c0.3,0.6,0.8,1,1.5,1.2c0.7,0.2,1.7,0.4,2.8,0.4c1.2,0,2.1-0.1,2.9-0.3c0.7-0.2,1.3-0.7,1.7-1.4c0.4-0.7,0.5-1.8,0.5-3.2V77.9
		l3.7,0.2c1.5,0,2.7-0.2,3.5-0.7c0.5-0.3,0.9-0.8,1.2-1.5c0.2-0.7,0.4-1.7,0.4-2.8c0-1.2-0.1-2.1-0.3-2.9
		C118.3,68.8,116.7,68,114.1,68z"/>
	<path class="st0" d="M142.7,68.3c-0.7-0.2-1.4-0.4-2-0.5c-0.6-0.1-1.4-0.1-2.3-0.1c-0.9,0-1.9,0.3-3.1,1c-1.2,0.6-2,1.2-2.3,1.5
		c-0.4,0.4-0.6,0.7-0.8,1c0-0.6-0.2-1.3-0.6-1.9c-0.6-0.9-2-1.3-4.3-1.3c-2.4,0-3.9,0.5-4.5,1.5c-0.3,0.5-0.4,1-0.5,1.5
		c-0.1,0.4-0.1,1.1-0.1,2v20.1c0,0.7,0,1.3,0,1.7c0.1,1.1,0.4,1.9,1,2.5c0.8,0.6,2.1,1,4,1c2.4,0,3.9-0.5,4.5-1.5
		c0.3-0.6,0.5-1.1,0.5-1.5c0.1-0.4,0.1-1.1,0.1-2v-12c0-1,0.4-1.9,1.3-2.6c0.9-0.7,1.9-1.1,2.9-1.1c1,0,1.9,0.2,2.5,0.5
		c0.6,0.3,1.3,0.5,2,0.5c1.4,0,2.4-0.7,3.1-2.2c0.7-1.5,1.1-2.8,1.1-4c0-1.2-0.2-2.1-0.7-2.7C144,68.9,143.4,68.6,142.7,68.3z"/>
	<path class="st0" d="M190.3,84.7c1.2-1.1,1.7-2.9,1.7-5.2c0-2.3-0.6-4.5-1.9-6.5c-2.5-3.7-6.4-5.6-11.7-5.6
		c-4.7,0-8.5,1.4-11.7,4.3c-3.1,2.9-4.7,6.7-4.7,11.5c0,3.8,1.2,7.3,3.6,10.4c1.2,1.6,2.9,2.9,5.1,3.9c2.2,1,4.7,1.5,7.5,1.5
		c8.1,0,12.2-1.7,12.2-5.1c0-0.7-0.2-1.6-0.7-2.6c-0.9-1.7-1.9-2.6-3.1-2.6c-0.6,0-1.4,0.2-2.3,0.6l-0.6,0.2c-1.3,0.5-3,0.7-5.2,0.7
		c-1.3,0-2.5-0.4-3.8-1.1c-1.3-0.7-1.9-1.6-1.9-2.7h13.6C187.9,86.4,189.2,85.8,190.3,84.7z M180,81.2h-7.2c0-1.1,0.6-2.2,1.8-3.2
		c1.2-1,2.5-1.5,3.7-1.5c1.2,0,2.2,0.3,2.9,0.8c0.7,0.5,1,1.2,1,2.1C182.2,80.5,181.4,81.2,180,81.2z"/>
	<path class="st0" d="M212.6,68c-1.6,0-3,0.4-4.3,1.3c-0.5,0.3-1,0.7-1.5,1.2c-0.5,0.5-0.9,0.9-1,1.1c0-0.9-0.2-1.7-0.6-2.3
		c-0.5-0.9-2-1.3-4.3-1.3c-2.4,0-3.9,0.5-4.4,1.4c-0.3,0.5-0.5,1-0.5,1.5c-0.1,0.4-0.1,1.1-0.1,1.9v20.3c0,0.9,0,1.5,0.1,2
		c0.1,0.4,0.2,0.9,0.5,1.5c0.5,1,2,1.5,4.4,1.5c2.4,0,3.9-0.5,4.4-1.5c0.3-0.5,0.5-1,0.5-1.5c0.1-0.4,0.1-1.1,0.1-2V83
		c0-1.5,0.5-2.7,1.4-3.6c0.9-0.9,2.2-1.4,3.7-1.4c1.5,0,2.7,0.4,3.6,1.3c0.9,0.9,1.3,2.1,1.3,3.7v10.1c0,1.3,0.1,2.3,0.3,2.9
		c0.4,1.4,2,2.1,4.7,2.1c2.4,0,3.9-0.5,4.5-1.5c0.3-0.5,0.4-1,0.5-1.5c0.1-0.4,0.1-1.1,0.1-2V83c0-4.2-1.3-7.8-3.8-10.7
		C219.6,69.4,216.4,68,212.6,68z"/>
	<path class="st0" d="M259.6,55.4c-0.3-0.6-0.8-1-1.5-1.2c-0.7-0.2-1.7-0.3-2.9-0.3c-1.2,0-2.2,0.1-2.9,0.3
		c-0.7,0.2-1.2,0.6-1.5,1.2c-0.3,0.6-0.5,1.1-0.5,1.5c-0.1,0.4-0.1,1.1-0.1,2v12c-1.6-1.9-3.8-2.9-6.6-2.9c-3.4,0-6.5,1.5-9.4,4.5
		c-2.8,3-4.3,6.5-4.3,10.5c0,4,1.4,7.5,4.2,10.5c2.8,3,6,4.5,9.4,4.5c2.9,0,5.1-0.9,6.7-2.7c0.3,1.9,1.8,2.8,4.4,2.8
		c2.7,0,4.3-0.5,4.8-1.5c0.3-0.5,0.5-1,0.5-1.5c0.1-0.4,0.1-1.1,0.1-2V58.9c0-0.9,0-1.5-0.1-2C260,56.5,259.9,56,259.6,55.4z
		 M248.6,86.5c-0.9,1-2.1,1.5-3.5,1.5c-1.4,0-2.6-0.5-3.6-1.5c-1-1-1.5-2.2-1.5-3.4c0-1.3,0.5-2.4,1.4-3.5c0.9-1,2.1-1.6,3.7-1.6
		c1.5,0,2.7,0.5,3.6,1.6c0.9,1.1,1.3,2.2,1.3,3.5C250,84.4,249.5,85.5,248.6,86.5z"/>
	<path class="st0" d="M285.1,81c-2.4-1.2-4.8-1.9-7.3-2.2c-2.6-0.3-3.9-1.1-3.9-2.2c0-0.8,1.1-1.3,3.4-1.3c1.5,0,2.8,0.3,4,0.9
		c1.2,0.6,2.1,0.9,2.5,0.9c0.9,0,1.7-0.7,2.6-2c0.8-1.3,1.3-2.5,1.3-3.4c0-0.9-0.7-1.7-2-2.3c-2.9-1.3-5.7-1.9-8.4-1.9
		c-8.3,0-12.4,3-12.4,9c0,2,0.4,3.8,1.1,5.2c0.7,1.5,1.6,2.5,2.7,3.2c2.4,1.5,4.8,2.3,7.2,2.7c2.6,0.3,3.8,0.9,3.8,1.6
		c0,0.9-1.2,1.4-3.5,1.4c-1.3,0-2.7-0.5-4.4-1.4c-1.6-0.9-2.9-1.4-3.8-1.4c-0.9,0-1.6,0.3-2,1c-1.5,2-2.2,3.5-2.2,4.5
		c0,1,0.4,1.7,1.1,2.2c3.4,2.1,6.9,3.2,10.6,3.2c3.7,0,6.7-0.6,9.2-1.8c1.3-0.7,2.4-1.7,3.1-3.1c0.7-1.4,1.1-3.1,1.1-5.1
		c0-2-0.4-3.6-1.1-5C287.2,82.4,286.2,81.5,285.1,81z"/>
	<path class="st0" d="M39,29.5h1.4v10.6c0,0.6,0,1.1,0.1,1.4c0,0.3,0.2,0.7,0.4,1.1c0.2,0.4,0.6,0.7,1.1,0.8c0.5,0.2,1.2,0.3,2,0.3
		c0.8,0,1.5-0.1,2-0.2c0.5-0.2,0.9-0.5,1.2-1c0.3-0.5,0.4-1.2,0.4-2.3V29.4l2.6,0.2c1.1,0,1.9-0.2,2.4-0.5c0.4-0.2,0.6-0.6,0.8-1.1
		c0.2-0.5,0.3-1.2,0.3-2c0-0.8-0.1-1.5-0.2-2c-0.3-1-1.4-1.5-3.2-1.5l-2.6,0.2v-2.2c0-0.7,0.5-1,1.5-1c0.5,0,0.9,0,1.1,0
		c0.8-0.1,1.4-0.3,1.8-0.7c0.5-0.6,0.7-1.5,0.7-2.8c0-1.7-0.4-2.7-1.1-3.1c-0.4-0.2-0.8-0.3-1.1-0.4c-0.3,0-0.8-0.1-1.4-0.1
		c-2.8,0-4.9,0.8-6.4,2.5c-1.5,1.7-2.2,3.5-2.2,5.6v2.1h-1.3c-1.6,0-2.4,1.1-2.4,3.3c0,1.4,0.3,2.4,0.8,2.9
		C37.8,29.3,38.3,29.4,39,29.5z"/>
	<path class="st0" d="M39,78.3h1.4v10.6c0,0.6,0,1.1,0.1,1.4c0,0.3,0.2,0.7,0.4,1.1c0.2,0.4,0.6,0.7,1.1,0.8c0.5,0.2,1.2,0.3,2,0.3
		c0.8,0,1.5-0.1,2-0.2c0.5-0.2,0.9-0.5,1.2-1c0.3-0.5,0.4-1.2,0.4-2.3V78.3l2.6,0.2c1.1,0,1.9-0.2,2.4-0.5c0.4-0.2,0.6-0.6,0.8-1.1
		c0.2-0.5,0.3-1.2,0.3-2c0-0.8-0.1-1.5-0.2-2c-0.3-1-1.4-1.5-3.2-1.5l-2.6,0.2v-2.2c0-0.7,0.5-1,1.5-1c0.5,0,0.9,0,1.1,0
		c0.8-0.1,1.4-0.3,1.8-0.7c0.5-0.6,0.7-1.5,0.7-2.8c0-1.7-0.4-2.7-1.1-3.1c-0.4-0.2-0.8-0.3-1.1-0.4c-0.3,0-0.8-0.1-1.4-0.1
		c-2.8,0-4.9,0.8-6.4,2.5c-1.5,1.7-2.2,3.5-2.2,5.6v2.1h-1.3c-1.6,0-2.4,1.1-2.4,3.3c0,1.4,0.3,2.4,0.8,2.9
		C37.8,78.1,38.3,78.2,39,78.3z"/>
	<g>
		<path class="st1" d="M133.1,22.1c0-2.5-2.4-4.5-5.3-4.5h-0.4c-2.9,0-5.3,2-5.3,4.5v27.7h11.1V22.1z"/>
		<circle class="st1" cx="127.6" cy="10.3" r="5.3"/>
	</g>
	<g>
		<path class="st1" d="M159.2,70.7c0-2.5-2.4-4.5-5.3-4.5h-0.4c-2.9,0-5.3,2-5.3,4.5v27.7h11.1V70.7z"/>
		<circle class="st1" cx="153.7" cy="58.9" r="5.3"/>
	</g>
</g>
</svg>
