<?xml version="1.0" encoding="utf-8"?>
<!-- Generator: Adobe Illustrator 21.1.0, SVG Export Plug-In . SVG Version: 6.00 Build 0)  -->
<svg version="1.1" id="Layer_1" xmlns="http://www.w3.org/2000/svg" xmlns:xlink="http://www.w3.org/1999/xlink" x="0px" y="0px"
	 viewBox="0 0 240.8 85" style="enable-background:new 0 0 240.8 85;" xml:space="preserve">
<style type="text/css">
	.st0{fill:#FFFFFF;}
	.st1{fill:#F7811E;}
</style>
<g>
	<path class="st0" d="M2.8,81.7h63.5V4.9H2.8V81.7z M54.2,7.9c0-0.4,0.3-0.7,0.7-0.7h7.6h0.2c0.4,0,0.7,0.3,0.7,0.7v7.8
		c0,0.4-0.3,0.7-0.7,0.7h-0.2h-7.6c-0.4,0-0.7-0.3-0.7-0.7V7.9z M54.2,20.5c0-0.4,0.3-0.7,0.7-0.7h7.8c0.4,0,0.7,0.3,0.7,0.7v7.8
		c0,0.4-0.3,0.7-0.7,0.7h-7.8c-0.4,0-0.7-0.3-0.7-0.7V20.5z M54.2,33.1c0-0.4,0.3-0.7,0.7-0.7h7.8c0.4,0,0.7,0.3,0.7,0.7v7.8
		c0,0.4-0.3,0.7-0.7,0.7h-7.8c-0.4,0-0.7-0.3-0.7-0.7V33.1z M54.2,45.7c0-0.4,0.3-0.7,0.7-0.7h7.8c0.4,0,0.7,0.3,0.7,0.7v7.8
		c0,0.4-0.3,0.7-0.7,0.7h-7.8c-0.4,0-0.7-0.3-0.7-0.7V45.7z M54.2,58.4c0-0.4,0.3-0.7,0.7-0.7h7.8c0.4,0,0.7,0.3,0.7,0.7v7.8
		c0,0.4-0.3,0.7-0.7,0.7h-7.8c-0.4,0-0.7-0.3-0.7-0.7V58.4z M54.2,71c0-0.4,0.3-0.7,0.7-0.7h7.8c0.4,0,0.7,0.3,0.7,0.7v7.8
		c0,0.4-0.3,0.7-0.7,0.7h-7.8c-0.4,0-0.7-0.3-0.7-0.7V71z M18.6,7.9c0-0.4,0.3-0.7,0.7-0.7h30.6c0.4,0,0.7,0.3,0.7,0.7v30.6
		c0,0.4-0.3,0.7-0.7,0.7H19.2c-0.4,0-0.7-0.3-0.7-0.7V7.9z M18.6,48.2c0-0.4,0.3-0.7,0.7-0.7h30.6c0.4,0,0.7,0.3,0.7,0.7v30.6
		c0,0.4-0.3,0.7-0.7,0.7H19.2c-0.4,0-0.7-0.3-0.7-0.7V48.2z M5.8,7.9c0-0.4,0.3-0.7,0.7-0.7h7.8c0.4,0,0.7,0.3,0.7,0.7v7.8
		c0,0.4-0.3,0.7-0.7,0.7H6.4c-0.4,0-0.7-0.3-0.7-0.7V7.9z M5.8,20.5c0-0.4,0.3-0.7,0.7-0.7h7.8c0.4,0,0.7,0.3,0.7,0.7v7.8
		c0,0.4-0.3,0.7-0.7,0.7H6.4c-0.4,0-0.7-0.3-0.7-0.7V20.5z M5.8,33.1c0-0.4,0.3-0.7,0.7-0.7h7.8c0.4,0,0.7,0.3,0.7,0.7v7.8
		c0,0.4-0.3,0.7-0.7,0.7H6.4c-0.4,0-0.7-0.3-0.7-0.7V33.1z M5.8,45.7c0-0.4,0.3-0.7,0.7-0.7h7.8c0.4,0,0.7,0.3,0.7,0.7v7.8
		c0,0.4-0.3,0.7-0.7,0.7H6.4c-0.4,0-0.7-0.3-0.7-0.7V45.7z M5.8,58.4c0-0.4,0.3-0.7,0.7-0.7h7.8c0.4,0,0.7,0.3,0.7,0.7v7.8
		c0,0.4-0.3,0.7-0.7,0.7H6.4c-0.4,0-0.7-0.3-0.7-0.7V58.4z M5.8,71c0-0.4,0.3-0.7,0.7-0.7h7.8c0.4,0,0.7,0.3,0.7,0.7v7.8
		c0,0.4-0.3,0.7-0.7,0.7H6.4c-0.4,0-0.7-0.3-0.7-0.7V71z"/>
	<path class="st0" d="M92.4,16l-3.1,0.3v-2.6c0-0.8,0.6-1.2,1.7-1.2c0.6,0,1,0,1.3,0c0.9-0.1,1.6-0.3,2.1-0.9
		c0.5-0.7,0.8-1.7,0.8-3.3c0-2-0.4-3.2-1.3-3.6c-0.5-0.3-0.9-0.4-1.3-0.4c-0.4,0-0.9-0.1-1.6-0.1c-3.3,0-5.8,1-7.5,3
		c-1.7,2-2.6,4.2-2.6,6.6v2.5h-1.6c-1.9,0-2.8,1.3-2.8,3.9c0,1.7,0.3,2.9,0.9,3.5c0.3,0.3,0.9,0.5,1.7,0.6H81v12.5
		c0,0.7,0,1.3,0.1,1.7c0,0.4,0.2,0.8,0.4,1.3c0.3,0.5,0.7,0.8,1.3,1c0.6,0.2,1.4,0.3,2.3,0.3c1,0,1.8-0.1,2.4-0.3
		c0.6-0.2,1.1-0.6,1.4-1.2c0.3-0.6,0.4-1.5,0.4-2.7V24.1l3,0.2c1.3,0,2.2-0.2,2.9-0.6c0.4-0.3,0.8-0.7,1-1.3
		c0.2-0.6,0.3-1.4,0.3-2.3c0-1-0.1-1.8-0.3-2.4C95.8,16.6,94.6,16,92.4,16z"/>
	<path class="st0" d="M117.4,40.6c3.1,0.4,5,0.3,5.9-0.3c0.6-0.4,0.9-1.7,0.9-3.6c0-1.8-0.3-2.9-0.9-3.4c-0.3-0.2-0.6-0.4-0.8-0.4
		c-0.2,0-0.7-0.1-1.3-0.1c-0.6,0-1.1-0.1-1.3-0.4c-0.2-0.3-0.3-1-0.3-2.2V8.4c0-0.7,0-1.3-0.1-1.7c0-0.4-0.2-0.8-0.4-1.3
		c-0.5-0.9-1.7-1.3-3.6-1.3c-2,0-3.2,0.4-3.7,1.3c-0.2,0.5-0.4,0.9-0.4,1.3c0,0.4-0.1,0.9-0.1,1.6v22.5c0,3.4,0.4,5.8,1.3,7.4
		C113.4,39.5,115,40.3,117.4,40.6z"/>
	<path class="st0" d="M162.7,39.6c0.3-0.5,0.4-0.9,0.4-1.3c0-0.4,0.1-0.9,0.1-1.6v-8.3c0-4.5-0.9-7.7-2.6-9.6
		c-1.7-1.9-3.8-2.9-6.3-2.9c-1.1,0-2.2,0.3-3.3,0.9c-1.1,0.6-1.9,1.2-2.3,1.7c-0.5,0.5-0.9,1-1.3,1.5c-1.6-2.7-4-4.1-7.2-4.1
		c-2.1,0-3.9,1.1-5.3,3.4c0-1.1-0.3-1.9-0.8-2.5c-0.5-0.6-1.7-0.9-3.5-0.9c-1.8,0-2.9,0.4-3.4,1.3c-0.3,0.4-0.4,0.8-0.4,1.2
		c0,0.4-0.1,0.9-0.1,1.6v16.6c0,0.8,0,1.3,0.1,1.7c0,0.3,0.2,0.8,0.4,1.2c0.4,0.9,1.7,1.3,3.6,1.3c2,0,3.2-0.4,3.7-1.2
		c0.3-0.5,0.4-0.9,0.4-1.3c0-0.4,0.1-0.9,0.1-1.6v-8.4c0-2.7,0.9-4.1,2.8-4.1c2,0,2.9,1.4,2.9,4.1v8.3c0,0.7,0,1.3,0.1,1.6
		c0,0.4,0.2,0.8,0.4,1.3c0.4,0.9,1.7,1.3,3.6,1.3c2,0,3.2-0.4,3.7-1.3c0.3-0.5,0.4-0.9,0.4-1.2c0-0.3,0.1-0.9,0.1-1.7v-8.3
		c0-1.3,0.2-2.3,0.6-3.1c0.4-0.7,1.1-1.1,2.2-1.1c2,0,2.9,1.4,2.9,4.1v8.3c0,0.7,0,1.3,0.1,1.6c0,0.4,0.2,0.8,0.4,1.3
		c0.4,0.9,1.7,1.3,3.6,1.3C161.1,40.8,162.3,40.4,162.7,39.6z"/>
	<path class="st0" d="M183.8,26.7c-2-1-4-1.6-6-1.8c-2.1-0.3-3.2-0.9-3.2-1.8c0-0.7,0.9-1,2.8-1c1.2,0,2.3,0.2,3.3,0.7
		c1,0.5,1.7,0.7,2.1,0.7c0.7,0,1.4-0.6,2.1-1.7c0.7-1.1,1-2,1-2.8c0-0.8-0.6-1.4-1.7-1.9c-2.4-1.1-4.7-1.6-6.9-1.6
		c-6.8,0-10.3,2.5-10.3,7.5c0,1.7,0.3,3.1,0.9,4.3c0.6,1.2,1.4,2.1,2.3,2.7c2,1.2,3.9,1.9,5.9,2.2c2.1,0.3,3.2,0.7,3.2,1.3
		c0,0.8-1,1.1-2.9,1.1c-1.1,0-2.3-0.4-3.6-1.2c-1.3-0.8-2.4-1.2-3.1-1.2c-0.8,0-1.3,0.3-1.7,0.8c-1.2,1.7-1.8,2.9-1.8,3.7
		c0,0.8,0.3,1.4,0.9,1.8c2.8,1.8,5.7,2.6,8.8,2.6c3,0,5.6-0.5,7.6-1.5c1.1-0.6,2-1.4,2.6-2.6c0.6-1.1,0.9-2.5,0.9-4.2
		c0-1.6-0.3-3-0.9-4.1C185.5,27.9,184.8,27.1,183.8,26.7z"/>
	<path class="st1" d="M216.4,31.6h4.1c1,0,1.8-0.1,2.4-0.4c0.4-0.2,0.6-0.6,0.8-1.1c0.2-0.5,0.2-1.3,0.2-2.2c0-0.9-0.1-1.6-0.3-2.2
		c-0.2-0.5-0.5-0.9-1-1.2c-0.5-0.3-1.3-0.4-2.4-0.4h-3.8v-3.8c0-1.1-0.1-2-0.4-2.6c-0.2-0.4-0.6-0.7-1.2-0.9
		c-0.6-0.2-1.3-0.3-2.2-0.3c-0.9,0-1.6,0.1-2.2,0.3c-0.6,0.2-1,0.5-1.2,1c-0.3,0.5-0.4,1.3-0.4,2.4v3.8h-3.8c-1.1,0-2,0.1-2.6,0.4
		c-0.4,0.2-0.7,0.6-0.9,1.2c-0.2,0.6-0.3,1.3-0.3,2.2c0,0.9,0.1,1.6,0.2,2.2c0.2,0.6,0.5,1,0.9,1.2c0.5,0.3,1.2,0.4,2.3,0.4h4.1v3.8
		c0,1.1,0.1,2,0.4,2.6c0.2,0.4,0.6,0.7,1.1,0.9c0.5,0.2,1.3,0.3,2.2,0.3s1.6-0.1,2.2-0.3c0.5-0.2,0.9-0.5,1.2-1
		c0.3-0.5,0.4-1.3,0.4-2.4V31.6z"/>
	<path class="st0" d="M92.4,56.2l-3.1,0.3v-2.6c0-0.8,0.6-1.2,1.7-1.2c0.6,0,1,0,1.3,0c0.9-0.1,1.6-0.3,2.1-0.9
		c0.5-0.7,0.8-1.7,0.8-3.3c0-2-0.4-3.2-1.3-3.6c-0.5-0.3-0.9-0.4-1.3-0.4c-0.4,0-0.9-0.1-1.6-0.1c-3.3,0-5.8,1-7.5,3
		c-1.7,2-2.6,4.2-2.6,6.6v2.5h-1.6c-1.9,0-2.8,1.3-2.8,3.9c0,1.7,0.3,2.9,0.9,3.5c0.3,0.3,0.9,0.5,1.7,0.6H81v12.5
		c0,0.7,0,1.3,0.1,1.7c0,0.4,0.2,0.8,0.4,1.3c0.3,0.5,0.7,0.8,1.3,1c0.6,0.2,1.4,0.3,2.3,0.3c1,0,1.8-0.1,2.4-0.3
		c0.6-0.2,1.1-0.6,1.4-1.2c0.3-0.6,0.4-1.5,0.4-2.7V64.4l3,0.2c1.3,0,2.2-0.2,2.9-0.6c0.4-0.3,0.8-0.7,1-1.3
		c0.2-0.6,0.3-1.4,0.3-2.3c0-1-0.1-1.8-0.3-2.4C95.8,56.8,94.6,56.2,92.4,56.2z"/>
	<path class="st0" d="M116,56.5c-0.6-0.2-1.2-0.3-1.7-0.4c-0.5-0.1-1.1-0.1-1.9-0.1c-0.7,0-1.6,0.3-2.6,0.8c-1,0.5-1.6,1-1.9,1.3
		c-0.3,0.3-0.5,0.6-0.7,0.8c0-0.5-0.2-1.1-0.5-1.6c-0.5-0.7-1.7-1.1-3.5-1.1c-2,0-3.2,0.4-3.7,1.3c-0.2,0.4-0.4,0.8-0.4,1.2
		c0,0.4-0.1,0.9-0.1,1.6v16.6c0,0.6,0,1.1,0,1.4c0.1,0.9,0.3,1.6,0.9,2c0.7,0.5,1.7,0.8,3.3,0.8c2,0,3.2-0.4,3.7-1.2
		c0.3-0.5,0.4-0.9,0.4-1.3c0-0.4,0.1-0.9,0.1-1.6v-9.9c0-0.9,0.4-1.6,1.1-2.2c0.7-0.6,1.5-0.9,2.4-0.9c0.9,0,1.5,0.1,2.1,0.4
		c0.5,0.3,1.1,0.4,1.6,0.4c1.1,0,2-0.6,2.6-1.8c0.6-1.2,0.9-2.3,0.9-3.3c0-1-0.2-1.7-0.6-2.2C117.1,57,116.6,56.7,116,56.5z"/>
	<path class="st0" d="M155.3,70c1-0.9,1.4-2.4,1.4-4.3c0-1.9-0.5-3.7-1.6-5.4c-2-3.1-5.3-4.6-9.6-4.6c-3.8,0-7.1,1.2-9.6,3.6
		c-2.6,2.4-3.9,5.6-3.9,9.5c0,3.2,1,6,3,8.6c1,1.3,2.4,2.4,4.2,3.2c1.8,0.8,3.9,1.2,6.2,1.2c6.7,0,10.1-1.4,10.1-4.2
		c0-0.6-0.2-1.3-0.6-2.2c-0.7-1.4-1.6-2.1-2.6-2.1c-0.5,0-1.1,0.2-1.9,0.5l-0.5,0.2c-1,0.4-2.5,0.6-4.3,0.6c-1,0-2.1-0.3-3.1-0.9
		c-1-0.6-1.6-1.3-1.6-2.2h11.2C153.3,71.4,154.4,70.9,155.3,70z M146.8,67.1h-6c0-0.9,0.5-1.8,1.5-2.7c1-0.8,2-1.3,3-1.3
		c1,0,1.8,0.2,2.4,0.7c0.6,0.4,0.8,1,0.8,1.7C148.6,66.6,148,67.1,146.8,67.1z"/>
	<path class="st0" d="M173.7,56.2c-1.3,0-2.5,0.4-3.5,1.1c-0.4,0.3-0.8,0.6-1.3,1c-0.4,0.4-0.7,0.7-0.9,0.9c0-0.8-0.2-1.4-0.5-1.9
		c-0.4-0.7-1.6-1.1-3.5-1.1c-2,0-3.2,0.4-3.6,1.2c-0.3,0.4-0.4,0.8-0.4,1.2c0,0.4-0.1,0.9-0.1,1.6v16.7c0,0.7,0,1.3,0.1,1.6
		c0,0.4,0.2,0.8,0.4,1.3c0.4,0.9,1.7,1.3,3.6,1.3c2,0,3.2-0.4,3.6-1.3c0.3-0.4,0.4-0.8,0.4-1.2c0-0.4,0.1-0.9,0.1-1.6v-8.4
		c0-1.2,0.4-2.2,1.2-3c0.8-0.8,1.8-1.1,3-1.1c1.2,0,2.2,0.4,3,1.1c0.7,0.7,1.1,1.7,1.1,3v8.3c0,1.1,0.1,1.9,0.3,2.4
		c0.3,1.2,1.6,1.7,3.9,1.7c2,0,3.2-0.4,3.7-1.3c0.2-0.4,0.4-0.8,0.4-1.2c0-0.4,0.1-0.9,0.1-1.6v-8.3c0-3.5-1-6.4-3.1-8.8
		C179.5,57.4,176.8,56.2,173.7,56.2z"/>
	<path class="st0" d="M212.5,45.8c-0.2-0.5-0.7-0.8-1.3-1c-0.6-0.2-1.4-0.3-2.4-0.3c-1,0-1.8,0.1-2.4,0.3c-0.6,0.2-1,0.5-1.3,1
		c-0.2,0.5-0.4,0.9-0.4,1.2c0,0.4-0.1,0.9-0.1,1.6v9.9c-1.3-1.6-3.1-2.4-5.4-2.4c-2.8,0-5.4,1.2-7.7,3.7c-2.3,2.5-3.5,5.4-3.5,8.7
		c0,3.3,1.2,6.2,3.5,8.6c2.3,2.5,4.9,3.7,7.8,3.7c2.4,0,4.2-0.8,5.5-2.3c0.3,1.5,1.5,2.3,3.7,2.3c2.2,0,3.5-0.4,4-1.3
		c0.3-0.4,0.4-0.8,0.4-1.2c0-0.4,0.1-0.9,0.1-1.6V48.7c0-0.7,0-1.3-0.1-1.6C212.8,46.7,212.7,46.3,212.5,45.8z M203.4,71.5
		c-0.8,0.9-1.7,1.3-2.9,1.3c-1.2,0-2.2-0.4-3-1.3c-0.8-0.9-1.2-1.8-1.2-2.8c0-1,0.4-2,1.1-2.9c0.8-0.9,1.8-1.3,3-1.3
		c1.3,0,2.3,0.4,3,1.3c0.7,0.9,1.1,1.8,1.1,2.9C204.5,69.7,204.2,70.6,203.4,71.5z"/>
	<path class="st0" d="M233.6,66.9c-2-1-4-1.6-6.1-1.8c-2.1-0.3-3.2-0.9-3.2-1.8c0-0.7,0.9-1,2.8-1c1.2,0,2.3,0.2,3.3,0.7
		c1,0.5,1.7,0.7,2.1,0.7c0.7,0,1.4-0.6,2.1-1.7c0.7-1.1,1-2,1-2.8c0-0.8-0.6-1.4-1.7-1.9c-2.4-1.1-4.7-1.6-6.9-1.6
		c-6.8,0-10.3,2.5-10.3,7.5c0,1.7,0.3,3.1,0.9,4.3c0.6,1.2,1.4,2.1,2.3,2.7c2,1.2,3.9,1.9,5.9,2.2c2.1,0.3,3.2,0.7,3.2,1.3
		c0,0.8-1,1.1-2.9,1.1c-1.1,0-2.3-0.4-3.6-1.2c-1.3-0.8-2.4-1.2-3.1-1.2c-0.8,0-1.3,0.3-1.7,0.8c-1.2,1.7-1.8,2.9-1.8,3.7
		c0,0.8,0.3,1.4,0.9,1.8c2.8,1.8,5.7,2.6,8.8,2.6c3,0,5.6-0.5,7.6-1.5c1.1-0.6,2-1.4,2.6-2.6c0.6-1.1,0.9-2.5,0.9-4.2
		c0-1.6-0.3-3-0.9-4.1C235.2,68.1,234.5,67.4,233.6,66.9z"/>
	<path class="st0" d="M30.4,24.4h1.2v8.8c0,0.5,0,0.9,0,1.2c0,0.3,0.1,0.6,0.3,0.9c0.2,0.3,0.5,0.6,0.9,0.7c0.4,0.1,1,0.2,1.6,0.2
		c0.7,0,1.2-0.1,1.7-0.2c0.4-0.1,0.7-0.4,1-0.8c0.2-0.4,0.3-1,0.3-1.9v-8.9l2.1,0.1c0.9,0,1.6-0.1,2-0.4c0.3-0.2,0.5-0.5,0.7-0.9
		c0.1-0.4,0.2-1,0.2-1.6c0-0.7-0.1-1.2-0.2-1.7c-0.3-0.8-1.2-1.3-2.7-1.3l-2.1,0.2v-1.8c0-0.6,0.4-0.8,1.2-0.8c0.4,0,0.7,0,0.9,0
		c0.7,0,1.1-0.2,1.5-0.6c0.4-0.5,0.6-1.2,0.6-2.3c0-1.4-0.3-2.3-0.9-2.5c-0.3-0.2-0.6-0.3-0.9-0.3c-0.3,0-0.6,0-1.1,0
		c-2.3,0-4,0.7-5.3,2.1c-1.2,1.4-1.8,2.9-1.8,4.6v1.8h-1.1c-1.3,0-1.9,0.9-1.9,2.7c0,1.2,0.2,2,0.6,2.4
		C29.4,24.2,29.8,24.4,30.4,24.4z"/>
	<path class="st0" d="M30.4,64.7h1.2v8.8c0,0.5,0,0.9,0,1.2c0,0.3,0.1,0.6,0.3,0.9c0.2,0.3,0.5,0.6,0.9,0.7c0.4,0.1,1,0.2,1.6,0.2
		c0.7,0,1.2-0.1,1.7-0.2c0.4-0.1,0.7-0.4,1-0.8c0.2-0.4,0.3-1,0.3-1.9v-8.9l2.1,0.1c0.9,0,1.6-0.1,2-0.4c0.3-0.2,0.5-0.5,0.7-0.9
		c0.1-0.4,0.2-1,0.2-1.6c0-0.7-0.1-1.2-0.2-1.7C42,59.4,41.1,59,39.6,59l-2.1,0.2v-1.8c0-0.6,0.4-0.8,1.2-0.8c0.4,0,0.7,0,0.9,0
		c0.7,0,1.1-0.2,1.5-0.6c0.4-0.5,0.6-1.2,0.6-2.3c0-1.4-0.3-2.3-0.9-2.5c-0.3-0.2-0.6-0.3-0.9-0.3c-0.3,0-0.6,0-1.1,0
		c-2.3,0-4,0.7-5.3,2.1c-1.2,1.4-1.8,2.9-1.8,4.6v1.8h-1.1c-1.3,0-1.9,0.9-1.9,2.7c0,1.2,0.2,2,0.6,2.4
		C29.4,64.5,29.8,64.7,30.4,64.7z"/>
	<g>
		<path class="st1" d="M108.1,18.3c0-2-2-3.7-4.4-3.7h-0.3c-2.4,0-4.4,1.7-4.4,3.7v22.9h9.1V18.3z"/>
		<circle class="st1" cx="103.5" cy="8.6" r="4.4"/>
	</g>
	<g>
		<path class="st1" d="M129.6,58.4c0-2-2-3.7-4.4-3.7h-0.3c-2.4,0-4.4,1.7-4.4,3.7v22.9h9.1V58.4z"/>
		<circle class="st1" cx="125.1" cy="48.7" r="4.4"/>
	</g>
</g>
</svg>
