<?xml version="1.0" encoding="utf-8"?>
<!-- Generator: Adobe Illustrator 21.1.0, SVG Export Plug-In . SVG Version: 6.00 Build 0)  -->
<svg version="1.1" id="Layer_1" xmlns="http://www.w3.org/2000/svg" xmlns:xlink="http://www.w3.org/1999/xlink" x="0px" y="0px"
	 viewBox="0 0 181.5 63" style="enable-background:new 0 0 181.5 63;" xml:space="preserve">
<style type="text/css">
	.st0{fill:#FFFFFF;}
	.st1{fill:#F7811E;}
</style>
<g>
	<path class="st0" d="M3,60.6h47.6V3H3V60.6z M41.5,5.2c0-0.3,0.2-0.5,0.5-0.5h5.7h0.2c0.3,0,0.5,0.2,0.5,0.5v5.8
		c0,0.3-0.2,0.5-0.5,0.5h-0.2H42c-0.3,0-0.5-0.2-0.5-0.5V5.2z M41.5,14.7c0-0.3,0.2-0.5,0.5-0.5h5.8c0.3,0,0.5,0.2,0.5,0.5v5.8
		c0,0.3-0.2,0.5-0.5,0.5H42c-0.3,0-0.5-0.2-0.5-0.5V14.7z M41.5,24.1c0-0.3,0.2-0.5,0.5-0.5h5.8c0.3,0,0.5,0.2,0.5,0.5V30
		c0,0.3-0.2,0.5-0.5,0.5H42c-0.3,0-0.5-0.2-0.5-0.5V24.1z M41.5,33.6c0-0.3,0.2-0.5,0.5-0.5h5.8c0.3,0,0.5,0.2,0.5,0.5v5.8
		c0,0.3-0.2,0.5-0.5,0.5H42c-0.3,0-0.5-0.2-0.5-0.5V33.6z M41.5,43c0-0.3,0.2-0.5,0.5-0.5h5.8c0.3,0,0.5,0.2,0.5,0.5v5.8
		c0,0.3-0.2,0.5-0.5,0.5H42c-0.3,0-0.5-0.2-0.5-0.5V43z M41.5,52.5c0-0.3,0.2-0.5,0.5-0.5h5.8c0.3,0,0.5,0.2,0.5,0.5v5.8
		c0,0.3-0.2,0.5-0.5,0.5H42c-0.3,0-0.5-0.2-0.5-0.5V52.5z M14.9,5.2c0-0.3,0.2-0.5,0.5-0.5h22.9c0.3,0,0.5,0.2,0.5,0.5v22.9
		c0,0.3-0.2,0.5-0.5,0.5H15.3c-0.3,0-0.5-0.2-0.5-0.5V5.2z M14.9,35.4c0-0.3,0.2-0.5,0.5-0.5h22.9c0.3,0,0.5,0.2,0.5,0.5v22.9
		c0,0.3-0.2,0.5-0.5,0.5H15.3c-0.3,0-0.5-0.2-0.5-0.5V35.4z M5.2,5.2c0-0.3,0.2-0.5,0.5-0.5h5.8c0.3,0,0.5,0.2,0.5,0.5v5.8
		c0,0.3-0.2,0.5-0.5,0.5H5.7c-0.3,0-0.5-0.2-0.5-0.5V5.2z M5.2,14.7c0-0.3,0.2-0.5,0.5-0.5h5.8c0.3,0,0.5,0.2,0.5,0.5v5.8
		c0,0.3-0.2,0.5-0.5,0.5H5.7c-0.3,0-0.5-0.2-0.5-0.5V14.7z M5.2,24.1c0-0.3,0.2-0.5,0.5-0.5h5.8c0.3,0,0.5,0.2,0.5,0.5V30
		c0,0.3-0.2,0.5-0.5,0.5H5.7c-0.3,0-0.5-0.2-0.5-0.5V24.1z M5.2,33.6c0-0.3,0.2-0.5,0.5-0.5h5.8c0.3,0,0.5,0.2,0.5,0.5v5.8
		c0,0.3-0.2,0.5-0.5,0.5H5.7c-0.3,0-0.5-0.2-0.5-0.5V33.6z M5.2,43c0-0.3,0.2-0.5,0.5-0.5h5.8c0.3,0,0.5,0.2,0.5,0.5v5.8
		c0,0.3-0.2,0.5-0.5,0.5H5.7c-0.3,0-0.5-0.2-0.5-0.5V43z M5.2,52.5c0-0.3,0.2-0.5,0.5-0.5h5.8c0.3,0,0.5,0.2,0.5,0.5v5.8
		c0,0.3-0.2,0.5-0.5,0.5H5.7c-0.3,0-0.5-0.2-0.5-0.5V52.5z"/>
	<path class="st0" d="M70.2,11.3l-2.3,0.2V9.5c0-0.6,0.4-0.9,1.3-0.9c0.4,0,0.8,0,1,0c0.7,0,1.2-0.3,1.6-0.6
		c0.4-0.5,0.6-1.3,0.6-2.4c0-1.5-0.3-2.4-1-2.7c-0.4-0.2-0.7-0.3-0.9-0.3s-0.7-0.1-1.2-0.1c-2.5,0-4.3,0.7-5.6,2.2
		c-1.3,1.5-1.9,3.1-1.9,4.9v1.9h-1.2c-1.4,0-2.1,1-2.1,2.9c0,1.3,0.2,2.1,0.7,2.6c0.3,0.2,0.7,0.4,1.3,0.4h1.3v9.4
		c0,0.5,0,1,0.1,1.2c0,0.3,0.1,0.6,0.3,0.9c0.2,0.3,0.5,0.6,0.9,0.7c0.4,0.2,1,0.2,1.8,0.2c0.7,0,1.3-0.1,1.8-0.2
		c0.5-0.1,0.8-0.4,1-0.9c0.2-0.4,0.3-1.1,0.3-2v-9.5l2.3,0.1c0.9,0,1.7-0.1,2.2-0.4c0.3-0.2,0.6-0.5,0.7-0.9c0.2-0.4,0.2-1,0.2-1.8
		c0-0.7-0.1-1.3-0.2-1.8C72.8,11.7,71.8,11.3,70.2,11.3z"/>
	<path class="st1" d="M81.9,13c0-1.5-1.5-2.8-3.3-2.8h-0.2c-1.8,0-3.3,1.3-3.3,2.8v17.2h6.8V13z"/>
	<circle class="st1" cx="78.6" cy="5.8" r="3.3"/>
	<path class="st0" d="M89,29.8c2.3,0.3,3.8,0.2,4.4-0.2c0.5-0.3,0.7-1.2,0.7-2.7c0-1.4-0.2-2.2-0.7-2.5c-0.2-0.2-0.4-0.3-0.6-0.3
		c-0.2,0-0.5-0.1-1-0.1c-0.5,0-0.8-0.1-0.9-0.3c-0.1-0.2-0.2-0.8-0.2-1.6V5.6c0-0.5,0-1-0.1-1.2c0-0.3-0.1-0.6-0.3-1
		c-0.4-0.6-1.3-1-2.7-1c-1.5,0-2.4,0.3-2.8,1c-0.2,0.4-0.3,0.7-0.3,0.9c0,0.3-0.1,0.7-0.1,1.2v16.9c0,2.5,0.3,4.4,1,5.5
		C86,28.9,87.1,29.5,89,29.8z"/>
	<path class="st0" d="M122.9,29c0.2-0.4,0.3-0.7,0.3-0.9c0-0.3,0.1-0.7,0.1-1.2v-6.2c0-3.4-0.6-5.8-1.9-7.2
		c-1.3-1.5-2.9-2.2-4.7-2.2c-0.9,0-1.7,0.2-2.5,0.7c-0.8,0.5-1.4,0.9-1.8,1.3c-0.4,0.4-0.7,0.8-0.9,1.1c-1.2-2.1-3-3.1-5.4-3.1
		c-1.6,0-2.9,0.8-4,2.5c0-0.8-0.2-1.4-0.6-1.8c-0.4-0.4-1.3-0.6-2.6-0.6c-1.3,0-2.2,0.3-2.5,1c-0.2,0.3-0.3,0.6-0.3,0.9
		c0,0.3-0.1,0.7-0.1,1.2v12.5c0,0.6,0,1,0.1,1.2c0,0.3,0.1,0.6,0.3,0.9c0.3,0.6,1.2,1,2.7,1c1.5,0,2.4-0.3,2.8-0.9
		c0.2-0.4,0.3-0.7,0.3-0.9c0-0.3,0.1-0.7,0.1-1.2v-6.3c0-2.1,0.7-3.1,2.1-3.1c1.5,0,2.2,1,2.2,3.1v6.2c0,0.5,0,1,0.1,1.2
		c0,0.3,0.1,0.6,0.3,0.9c0.3,0.7,1.2,1,2.7,1c1.5,0,2.4-0.3,2.8-1c0.2-0.4,0.3-0.7,0.3-0.9c0-0.3,0.1-0.7,0.1-1.2v-6.2
		c0-1,0.1-1.8,0.4-2.3c0.3-0.5,0.9-0.8,1.7-0.8c1.5,0,2.2,1,2.2,3.1v6.2c0,0.5,0,1,0.1,1.2c0,0.3,0.1,0.6,0.3,0.9
		c0.3,0.7,1.2,1,2.7,1C121.7,29.9,122.6,29.6,122.9,29z"/>
	<path class="st0" d="M138.8,19.3c-1.5-0.7-3-1.2-4.5-1.3c-1.6-0.2-2.4-0.7-2.4-1.4c0-0.5,0.7-0.8,2.1-0.8c0.9,0,1.7,0.2,2.5,0.5
		c0.8,0.4,1.3,0.5,1.6,0.5c0.5,0,1.1-0.4,1.6-1.2c0.5-0.8,0.8-1.5,0.8-2.1s-0.4-1-1.2-1.4c-1.8-0.8-3.5-1.2-5.2-1.2
		c-5.1,0-7.7,1.9-7.7,5.6c0,1.3,0.2,2.3,0.7,3.2c0.4,0.9,1,1.6,1.7,2c1.5,0.9,2.9,1.5,4.4,1.7c1.6,0.2,2.4,0.5,2.4,1
		c0,0.6-0.7,0.9-2.2,0.9c-0.8,0-1.7-0.3-2.7-0.9c-1-0.6-1.8-0.9-2.4-0.9c-0.6,0-1,0.2-1.3,0.6c-0.9,1.3-1.3,2.2-1.3,2.8
		c0,0.6,0.2,1.1,0.7,1.3c2.1,1.3,4.3,2,6.6,2c2.3,0,4.2-0.4,5.7-1.1c0.8-0.4,1.5-1.1,1.9-1.9c0.5-0.9,0.7-1.9,0.7-3.1
		c0-1.2-0.2-2.3-0.7-3.1C140.1,20.2,139.5,19.6,138.8,19.3z"/>
	<path class="st1" d="M163.2,23h3c0.8,0,1.4-0.1,1.8-0.3c0.3-0.2,0.5-0.4,0.6-0.9c0.1-0.4,0.2-0.9,0.2-1.6c0-0.7-0.1-1.2-0.2-1.6
		c-0.1-0.4-0.4-0.7-0.8-0.9c-0.4-0.2-1-0.3-1.8-0.3h-2.9v-2.8c0-0.9-0.1-1.5-0.3-1.9c-0.2-0.3-0.5-0.5-0.9-0.7
		c-0.4-0.1-1-0.2-1.6-0.2c-0.7,0-1.2,0.1-1.6,0.2c-0.4,0.1-0.7,0.4-0.9,0.8c-0.2,0.4-0.3,1-0.3,1.8v2.9h-2.8c-0.9,0-1.5,0.1-1.9,0.3
		c-0.3,0.2-0.6,0.5-0.7,0.9c-0.1,0.4-0.2,1-0.2,1.6c0,0.7,0.1,1.2,0.2,1.6c0.1,0.4,0.4,0.7,0.7,0.9c0.4,0.2,0.9,0.3,1.7,0.3h3.1v2.8
		c0,0.9,0.1,1.5,0.3,1.9c0.2,0.3,0.4,0.5,0.9,0.7c0.4,0.1,0.9,0.2,1.6,0.2c0.7,0,1.2-0.1,1.6-0.2c0.4-0.1,0.7-0.4,0.9-0.8
		c0.2-0.4,0.3-1,0.3-1.8V23z"/>
	<path class="st0" d="M70.2,41.5l-2.3,0.2v-1.9c0-0.6,0.4-0.9,1.3-0.9c0.4,0,0.8,0,1,0c0.7,0,1.2-0.3,1.6-0.6
		c0.4-0.5,0.6-1.3,0.6-2.4c0-1.5-0.3-2.4-1-2.7c-0.4-0.2-0.7-0.3-0.9-0.3s-0.7-0.1-1.2-0.1c-2.5,0-4.3,0.7-5.6,2.2
		c-1.3,1.5-1.9,3.1-1.9,4.9v1.9h-1.2c-1.4,0-2.1,1-2.1,2.9c0,1.3,0.2,2.1,0.7,2.6c0.3,0.2,0.7,0.4,1.3,0.4h1.3V57c0,0.5,0,1,0.1,1.2
		c0,0.3,0.1,0.6,0.3,0.9c0.2,0.3,0.5,0.6,0.9,0.7c0.4,0.2,1,0.2,1.8,0.2c0.7,0,1.3-0.1,1.8-0.2c0.5-0.1,0.8-0.4,1-0.9
		c0.2-0.4,0.3-1.1,0.3-2v-9.5l2.3,0.1c0.9,0,1.7-0.1,2.2-0.4c0.3-0.2,0.6-0.5,0.7-0.9c0.2-0.4,0.2-1,0.2-1.8c0-0.7-0.1-1.3-0.2-1.8
		C72.8,41.9,71.8,41.5,70.2,41.5z"/>
	<path class="st0" d="M87.9,41.6c-0.4-0.1-0.9-0.2-1.2-0.3c-0.4-0.1-0.8-0.1-1.4-0.1c-0.6,0-1.2,0.2-1.9,0.6c-0.7,0.4-1.2,0.7-1.4,1
		c-0.2,0.2-0.4,0.4-0.5,0.6c0-0.4-0.1-0.8-0.4-1.2c-0.4-0.5-1.2-0.8-2.7-0.8c-1.5,0-2.4,0.3-2.8,1c-0.2,0.3-0.3,0.6-0.3,0.9
		c0,0.3-0.1,0.7-0.1,1.2v12.4c0,0.4,0,0.8,0,1c0,0.7,0.3,1.2,0.6,1.5c0.5,0.4,1.3,0.6,2.4,0.6c1.5,0,2.4-0.3,2.8-0.9
		c0.2-0.4,0.3-0.7,0.3-0.9c0-0.3,0.1-0.7,0.1-1.2v-7.4c0-0.6,0.3-1.2,0.8-1.6c0.6-0.4,1.2-0.7,1.8-0.7c0.6,0,1.2,0.1,1.5,0.3
		c0.4,0.2,0.8,0.3,1.2,0.3c0.9,0,1.5-0.4,1.9-1.3c0.4-0.9,0.7-1.7,0.7-2.5c0-0.8-0.1-1.3-0.4-1.6C88.7,42,88.4,41.8,87.9,41.6z"/>
	<path class="st0" d="M117.4,51.8c0.7-0.7,1.1-1.8,1.1-3.2s-0.4-2.8-1.2-4c-1.5-2.3-3.9-3.5-7.2-3.5c-2.9,0-5.3,0.9-7.2,2.7
		c-1.9,1.8-2.9,4.2-2.9,7.1c0,2.4,0.7,4.5,2.2,6.4c0.8,1,1.8,1.8,3.2,2.4c1.4,0.6,2.9,0.9,4.7,0.9c5,0,7.5-1.1,7.5-3.2
		c0-0.4-0.2-1-0.5-1.6c-0.5-1.1-1.2-1.6-1.9-1.6c-0.4,0-0.9,0.1-1.4,0.4l-0.4,0.1c-0.8,0.3-1.9,0.4-3.2,0.4c-0.8,0-1.6-0.2-2.3-0.7
		c-0.8-0.4-1.2-1-1.2-1.7h8.4C115.9,52.8,116.7,52.5,117.4,51.8z M111,49.6h-4.5c0-0.7,0.4-1.4,1.1-2c0.8-0.6,1.5-0.9,2.3-0.9
		c0.8,0,1.4,0.2,1.8,0.5c0.4,0.3,0.6,0.8,0.6,1.3C112.3,49.2,111.9,49.6,111,49.6z"/>
	<path class="st0" d="M131.2,41.4c-1,0-1.9,0.3-2.7,0.8c-0.3,0.2-0.6,0.4-1,0.7c-0.3,0.3-0.5,0.5-0.6,0.7c0-0.6-0.1-1.1-0.4-1.5
		c-0.3-0.5-1.2-0.8-2.7-0.8c-1.5,0-2.4,0.3-2.7,0.9c-0.2,0.3-0.3,0.6-0.3,0.9c0,0.3-0.1,0.7-0.1,1.2v12.5c0,0.5,0,1,0.1,1.2
		c0,0.3,0.1,0.6,0.3,0.9c0.3,0.6,1.2,1,2.7,1c1.5,0,2.4-0.3,2.7-1c0.2-0.3,0.3-0.6,0.3-0.9c0-0.3,0.1-0.7,0.1-1.2v-6.3
		c0-0.9,0.3-1.7,0.9-2.2c0.6-0.6,1.3-0.9,2.3-0.9c0.9,0,1.7,0.3,2.2,0.8c0.6,0.5,0.8,1.3,0.8,2.3v6.2c0,0.8,0.1,1.4,0.2,1.8
		c0.3,0.9,1.2,1.3,2.9,1.3c1.5,0,2.4-0.3,2.8-1c0.2-0.3,0.3-0.6,0.3-0.9c0-0.3,0.1-0.7,0.1-1.2v-6.2c0-2.6-0.8-4.8-2.4-6.6
		C135.5,42.3,133.5,41.4,131.2,41.4z"/>
	<path class="st0" d="M160.3,33.7c-0.2-0.4-0.5-0.6-0.9-0.7c-0.4-0.1-1-0.2-1.8-0.2c-0.7,0-1.3,0.1-1.8,0.2
		c-0.4,0.1-0.8,0.4-0.9,0.7c-0.2,0.3-0.3,0.7-0.3,0.9c0,0.3-0.1,0.7-0.1,1.2v7.4c-1-1.2-2.3-1.8-4.1-1.8c-2.1,0-4,0.9-5.8,2.8
		c-1.8,1.9-2.6,4-2.6,6.5c0,2.5,0.9,4.6,2.6,6.5c1.7,1.9,3.7,2.8,5.8,2.8c1.8,0,3.2-0.6,4.1-1.7c0.2,1.2,1.1,1.7,2.7,1.7
		c1.6,0,2.6-0.3,3-1c0.2-0.3,0.3-0.6,0.3-0.9c0-0.3,0.1-0.7,0.1-1.2V35.8c0-0.5,0-1-0.1-1.2C160.5,34.3,160.4,34,160.3,33.7z
		 M153.4,52.9c-0.6,0.6-1.3,1-2.2,1c-0.9,0-1.6-0.3-2.2-1c-0.6-0.6-0.9-1.3-0.9-2.1c0-0.8,0.3-1.5,0.9-2.1c0.6-0.6,1.3-1,2.3-1
		c0.9,0,1.7,0.3,2.3,1c0.6,0.7,0.8,1.4,0.8,2.1C154.3,51.6,154,52.3,153.4,52.9z"/>
	<path class="st0" d="M176.1,49.5c-1.5-0.7-3-1.2-4.5-1.3c-1.6-0.2-2.4-0.7-2.4-1.4c0-0.5,0.7-0.8,2.1-0.8c0.9,0,1.7,0.2,2.5,0.5
		c0.8,0.4,1.3,0.5,1.6,0.5c0.5,0,1.1-0.4,1.6-1.2c0.5-0.8,0.8-1.5,0.8-2.1c0-0.6-0.4-1-1.2-1.4c-1.8-0.8-3.5-1.2-5.2-1.2
		c-5.1,0-7.7,1.9-7.7,5.6c0,1.3,0.2,2.3,0.7,3.2c0.4,0.9,1,1.6,1.7,2c1.5,0.9,2.9,1.5,4.4,1.7c1.6,0.2,2.4,0.5,2.4,1
		c0,0.6-0.7,0.9-2.2,0.9c-0.8,0-1.7-0.3-2.7-0.9c-1-0.6-1.8-0.9-2.4-0.9c-0.6,0-1,0.2-1.3,0.6c-0.9,1.3-1.3,2.2-1.3,2.8
		c0,0.6,0.2,1.1,0.7,1.3c2.1,1.3,4.3,2,6.6,2c2.3,0,4.2-0.4,5.7-1.1c0.8-0.4,1.5-1.1,1.9-1.9c0.5-0.9,0.7-1.9,0.7-3.1
		c0-1.2-0.2-2.3-0.7-3.1C177.3,50.4,176.8,49.8,176.1,49.5z"/>
	<path class="st1" d="M94.6,40.3h-0.2c-1.8,0-3.3,1.3-3.3,2.8v17.2H98V43.1C98,41.5,96.5,40.3,94.6,40.3z"/>
	<circle class="st1" cx="94.7" cy="35.8" r="3.3"/>
</g>
</svg>
