<?xml version="1.0" encoding="utf-8"?>
<!-- Generator: Adobe Illustrator 21.1.0, SVG Export Plug-In . SVG Version: 6.00 Build 0)  -->
<svg version="1.1" id="Layer_1" xmlns="http://www.w3.org/2000/svg" xmlns:xlink="http://www.w3.org/1999/xlink" x="0px" y="0px"
	 viewBox="0 0 300 112.5" style="enable-background:new 0 0 300 112.5;" xml:space="preserve">
<style type="text/css">
	.st0{fill:#FFFFFF;}
	.st1{fill:#F7811E;}
</style>
<g>
	<path class="st0" d="M9.1,103.5H86v-93H9.1V103.5z M71.3,14.1c0-0.4,0.4-0.8,0.8-0.8h9.2h0.3c0.4,0,0.8,0.4,0.8,0.8v9.4
		c0,0.4-0.4,0.8-0.8,0.8h-0.3h-9.2c-0.4,0-0.8-0.4-0.8-0.8V14.1z M71.3,29.4c0-0.4,0.4-0.8,0.8-0.8h9.4c0.4,0,0.8,0.4,0.8,0.8v9.4
		c0,0.4-0.4,0.8-0.8,0.8h-9.4c-0.4,0-0.8-0.4-0.8-0.8V29.4z M71.3,44.7c0-0.4,0.4-0.8,0.8-0.8h9.4c0.4,0,0.8,0.4,0.8,0.8v9.4
		c0,0.4-0.4,0.8-0.8,0.8h-9.4c-0.4,0-0.8-0.4-0.8-0.8V44.7z M71.3,60c0-0.4,0.4-0.8,0.8-0.8h9.4c0.4,0,0.8,0.4,0.8,0.8v9.4
		c0,0.4-0.4,0.8-0.8,0.8h-9.4c-0.4,0-0.8-0.4-0.8-0.8V60z M71.3,75.2c0-0.4,0.4-0.8,0.8-0.8h9.4c0.4,0,0.8,0.4,0.8,0.8v9.4
		c0,0.4-0.4,0.8-0.8,0.8h-9.4c-0.4,0-0.8-0.4-0.8-0.8V75.2z M71.3,90.5c0-0.4,0.4-0.8,0.8-0.8h9.4c0.4,0,0.8,0.4,0.8,0.8v9.4
		c0,0.4-0.4,0.8-0.8,0.8h-9.4c-0.4,0-0.8-0.4-0.8-0.8V90.5z M28.2,14.1c0-0.4,0.4-0.8,0.8-0.8h37c0.4,0,0.8,0.4,0.8,0.8v37
		c0,0.4-0.4,0.8-0.8,0.8H29c-0.4,0-0.8-0.4-0.8-0.8V14.1z M28.2,62.9c0-0.4,0.4-0.8,0.8-0.8h37c0.4,0,0.8,0.4,0.8,0.8v37
		c0,0.4-0.4,0.8-0.8,0.8H29c-0.4,0-0.8-0.4-0.8-0.8V62.9z M12.7,14.1c0-0.4,0.4-0.8,0.8-0.8h9.4c0.4,0,0.8,0.4,0.8,0.8v9.4
		c0,0.4-0.4,0.8-0.8,0.8h-9.4c-0.4,0-0.8-0.4-0.8-0.8V14.1z M12.7,29.4c0-0.4,0.4-0.8,0.8-0.8h9.4c0.4,0,0.8,0.4,0.8,0.8v9.4
		c0,0.4-0.4,0.8-0.8,0.8h-9.4c-0.4,0-0.8-0.4-0.8-0.8V29.4z M12.7,44.7c0-0.4,0.4-0.8,0.8-0.8h9.4c0.4,0,0.8,0.4,0.8,0.8v9.4
		c0,0.4-0.4,0.8-0.8,0.8h-9.4c-0.4,0-0.8-0.4-0.8-0.8V44.7z M12.7,60c0-0.4,0.4-0.8,0.8-0.8h9.4c0.4,0,0.8,0.4,0.8,0.8v9.4
		c0,0.4-0.4,0.8-0.8,0.8h-9.4c-0.4,0-0.8-0.4-0.8-0.8V60z M12.7,75.2c0-0.4,0.4-0.8,0.8-0.8h9.4c0.4,0,0.8,0.4,0.8,0.8v9.4
		c0,0.4-0.4,0.8-0.8,0.8h-9.4c-0.4,0-0.8-0.4-0.8-0.8V75.2z M12.7,90.5c0-0.4,0.4-0.8,0.8-0.8h9.4c0.4,0,0.8,0.4,0.8,0.8v9.4
		c0,0.4-0.4,0.8-0.8,0.8h-9.4c-0.4,0-0.8-0.4-0.8-0.8V90.5z"/>
	<path class="st0" d="M117.6,23.9l-3.7,0.3v-3.1c0-1,0.7-1.4,2.1-1.4c0.7,0,1.3,0,1.6,0c1.1-0.1,2-0.4,2.5-1c0.6-0.8,1-2.1,1-4
		c0-2.4-0.5-3.9-1.5-4.4c-0.6-0.3-1.1-0.5-1.5-0.5c-0.4-0.1-1.1-0.1-2-0.1c-4,0-7,1.2-9.1,3.6c-2.1,2.4-3.1,5-3.1,8v3h-1.9
		c-2.3,0-3.4,1.6-3.4,4.7c0,2.1,0.4,3.5,1.1,4.2c0.4,0.4,1.1,0.6,2.1,0.7h2.1V49c0,0.9,0,1.5,0.1,2c0.1,0.5,0.2,1,0.5,1.5
		c0.3,0.6,0.8,1,1.5,1.2c0.7,0.2,1.7,0.4,2.8,0.4c1.2,0,2.1-0.1,2.9-0.3c0.7-0.2,1.3-0.7,1.7-1.4c0.4-0.7,0.5-1.8,0.5-3.2V33.7
		l3.7,0.2c1.5,0,2.7-0.2,3.5-0.7c0.5-0.3,0.9-0.8,1.2-1.5c0.2-0.7,0.4-1.7,0.4-2.8c0-1.2-0.1-2.1-0.3-2.9
		C121.8,24.6,120.3,23.9,117.6,23.9z"/>
	<path class="st0" d="M147.9,53.8c3.7,0.5,6.1,0.3,7.1-0.3c0.8-0.5,1.1-2,1.1-4.4c0-2.2-0.4-3.6-1.1-4.1c-0.4-0.3-0.7-0.4-1-0.5
		c-0.3-0.1-0.8-0.1-1.6-0.1c-0.8,0-1.3-0.2-1.5-0.5c-0.2-0.4-0.3-1.2-0.3-2.6V14.7c0-0.9,0-1.5-0.1-2c-0.1-0.5-0.2-1-0.5-1.5
		c-0.6-1-2-1.5-4.4-1.5c-2.4,0-3.9,0.5-4.5,1.5c-0.3,0.6-0.4,1.1-0.5,1.5c-0.1,0.4-0.1,1.1-0.1,2v27.3c0,4.1,0.5,7.1,1.6,8.9
		C143.1,52.4,145,53.4,147.9,53.8z"/>
	<path class="st0" d="M202.8,52.5c0.3-0.6,0.5-1.1,0.5-1.5c0.1-0.4,0.1-1.1,0.1-2V39c0-5.4-1-9.3-3.1-11.7c-2.1-2.3-4.6-3.5-7.7-3.5
		c-1.4,0-2.7,0.4-4,1.1c-1.3,0.7-2.2,1.4-2.8,2.1c-0.6,0.6-1.1,1.2-1.5,1.8c-1.9-3.3-4.8-5-8.7-5c-2.5,0-4.7,1.4-6.5,4.1
		c0-1.3-0.3-2.3-1-3c-0.6-0.7-2-1-4.2-1c-2.1,0-3.5,0.5-4.1,1.5c-0.3,0.5-0.5,1-0.5,1.5c-0.1,0.4-0.1,1.1-0.1,2V49
		c0,0.9,0,1.6,0.1,2c0.1,0.4,0.2,0.9,0.5,1.5c0.5,1,2,1.5,4.4,1.5c2.4,0,3.9-0.5,4.5-1.5c0.3-0.6,0.5-1.1,0.5-1.5
		c0.1-0.4,0.1-1.1,0.1-2V38.9c0-3.3,1.1-5,3.4-5c2.4,0,3.6,1.7,3.6,5v10c0,0.9,0,1.5,0.1,2c0.1,0.4,0.2,0.9,0.5,1.5
		c0.5,1.1,2,1.6,4.4,1.6c2.4,0,3.9-0.5,4.5-1.5c0.3-0.6,0.5-1.1,0.5-1.5c0.1-0.4,0.1-1.1,0.1-2V39c0-1.6,0.2-2.8,0.7-3.7
		c0.5-0.9,1.4-1.3,2.7-1.3c2.4,0,3.6,1.7,3.6,5v10c0,0.9,0,1.5,0.1,2c0.1,0.4,0.2,0.9,0.5,1.5c0.5,1.1,2,1.6,4.4,1.6
		C200.9,54,202.3,53.5,202.8,52.5z"/>
	<path class="st0" d="M228.4,36.8c-2.4-1.2-4.8-1.9-7.3-2.2c-2.6-0.3-3.9-1.1-3.9-2.2c0-0.8,1.1-1.3,3.4-1.3c1.5,0,2.8,0.3,4,0.9
		c1.2,0.6,2.1,0.9,2.5,0.9c0.9,0,1.7-0.7,2.6-2c0.8-1.3,1.3-2.5,1.3-3.4c0-0.9-0.7-1.7-2-2.3c-2.9-1.3-5.7-1.9-8.4-1.9
		c-8.3,0-12.4,3-12.4,9c0,2,0.4,3.8,1.1,5.2c0.7,1.5,1.6,2.5,2.7,3.2c2.4,1.5,4.8,2.3,7.2,2.7c2.6,0.3,3.8,0.9,3.8,1.6
		c0,0.9-1.2,1.4-3.5,1.4c-1.3,0-2.7-0.5-4.4-1.4c-1.6-0.9-2.9-1.4-3.8-1.4c-0.9,0-1.6,0.3-2,1c-1.5,2-2.2,3.5-2.2,4.5
		c0,1,0.4,1.7,1.1,2.2c3.4,2.1,6.9,3.2,10.6,3.2c3.7,0,6.7-0.6,9.2-1.8c1.3-0.7,2.4-1.7,3.1-3.1c0.7-1.4,1.1-3.1,1.1-5.1
		c0-2-0.4-3.6-1.1-5C230.5,38.3,229.5,37.4,228.4,36.8z"/>
	<path class="st1" d="M267.9,42.9h4.9c1.3,0,2.2-0.2,2.9-0.5c0.5-0.3,0.8-0.7,1-1.4c0.2-0.6,0.3-1.5,0.3-2.6c0-1.1-0.1-2-0.3-2.6
		c-0.2-0.6-0.6-1.1-1.2-1.5c-0.6-0.3-1.6-0.5-2.9-0.5h-4.6v-4.6c0-1.4-0.2-2.4-0.5-3.1c-0.3-0.5-0.7-0.8-1.4-1.1
		c-0.7-0.2-1.5-0.3-2.6-0.3c-1.1,0-1.9,0.1-2.6,0.3c-0.7,0.2-1.2,0.6-1.5,1.2c-0.3,0.6-0.5,1.6-0.5,2.9v4.6h-4.6
		c-1.4,0-2.4,0.2-3.1,0.5c-0.5,0.3-0.9,0.7-1.1,1.4c-0.2,0.7-0.3,1.5-0.3,2.6c0,1.1,0.1,1.9,0.3,2.6c0.2,0.7,0.6,1.2,1.1,1.5
		c0.6,0.3,1.5,0.5,2.7,0.5h5v4.6c0,1.4,0.2,2.4,0.5,3.1c0.3,0.5,0.7,0.9,1.4,1.1c0.6,0.2,1.5,0.3,2.6,0.3s2-0.1,2.6-0.3
		c0.6-0.2,1.1-0.6,1.5-1.2c0.3-0.6,0.5-1.6,0.5-2.9V42.9z"/>
	<path class="st0" d="M117.6,72.7l-3.7,0.3v-3.1c0-1,0.7-1.4,2.1-1.4c0.7,0,1.3,0,1.6,0c1.1-0.1,2-0.4,2.5-1c0.6-0.8,1-2.1,1-4
		c0-2.4-0.5-3.9-1.5-4.4c-0.6-0.3-1.1-0.5-1.5-0.5c-0.4-0.1-1.1-0.1-2-0.1c-4,0-7,1.2-9.1,3.6c-2.1,2.4-3.1,5-3.1,8v3h-1.9
		c-2.3,0-3.4,1.6-3.4,4.7c0,2.1,0.4,3.5,1.1,4.2c0.4,0.4,1.1,0.6,2.1,0.7h2.1v15.2c0,0.9,0,1.5,0.1,2c0.1,0.5,0.2,1,0.5,1.5
		c0.3,0.6,0.8,1,1.5,1.2c0.7,0.2,1.7,0.4,2.8,0.4c1.2,0,2.1-0.1,2.9-0.3c0.7-0.2,1.3-0.7,1.7-1.4c0.4-0.7,0.5-1.8,0.5-3.2V82.5
		l3.7,0.2c1.5,0,2.7-0.2,3.5-0.7c0.5-0.3,0.9-0.8,1.2-1.5c0.2-0.7,0.4-1.7,0.4-2.8c0-1.2-0.1-2.1-0.3-2.9
		C121.8,73.4,120.3,72.7,117.6,72.7z"/>
	<path class="st0" d="M146.3,73c-0.7-0.2-1.4-0.4-2-0.5c-0.6-0.1-1.4-0.1-2.3-0.1c-0.9,0-1.9,0.3-3.1,1c-1.2,0.6-2,1.2-2.3,1.5
		c-0.4,0.4-0.6,0.7-0.8,1c0-0.6-0.2-1.3-0.6-1.9c-0.6-0.9-2-1.3-4.3-1.3c-2.4,0-3.9,0.5-4.5,1.5c-0.3,0.5-0.4,1-0.5,1.5
		c-0.1,0.4-0.1,1.1-0.1,2v20.1c0,0.7,0,1.3,0,1.7c0.1,1.1,0.4,1.9,1,2.5c0.8,0.6,2.1,1,4,1c2.4,0,3.9-0.5,4.5-1.5
		c0.3-0.6,0.5-1.1,0.5-1.5c0.1-0.4,0.1-1.1,0.1-2v-12c0-1,0.4-1.9,1.3-2.6c0.9-0.7,1.9-1.1,2.9-1.1c1,0,1.9,0.2,2.5,0.5
		c0.6,0.3,1.3,0.5,2,0.5c1.4,0,2.4-0.7,3.1-2.2c0.7-1.5,1.1-2.8,1.1-4c0-1.2-0.2-2.1-0.7-2.7C147.6,73.6,147,73.2,146.3,73z"/>
	<path class="st0" d="M193.9,89.3c1.2-1.1,1.7-2.9,1.7-5.2c0-2.3-0.6-4.5-1.9-6.5c-2.5-3.7-6.4-5.6-11.7-5.6
		c-4.7,0-8.5,1.4-11.7,4.3c-3.1,2.9-4.7,6.7-4.7,11.5c0,3.8,1.2,7.3,3.6,10.4c1.2,1.6,2.9,2.9,5.1,3.9c2.2,1,4.7,1.5,7.5,1.5
		c8.1,0,12.2-1.7,12.2-5.1c0-0.7-0.2-1.6-0.7-2.6c-0.9-1.7-1.9-2.6-3.1-2.6c-0.6,0-1.4,0.2-2.3,0.6l-0.6,0.2c-1.3,0.5-3,0.7-5.2,0.7
		c-1.3,0-2.5-0.4-3.8-1.1c-1.3-0.7-1.9-1.6-1.9-2.7H190C191.4,91,192.7,90.4,193.9,89.3z M183.5,85.8h-7.2c0-1.1,0.6-2.2,1.8-3.2
		c1.2-1,2.5-1.5,3.7-1.5c1.2,0,2.2,0.3,2.9,0.8c0.7,0.5,1,1.2,1,2.1C185.7,85.2,185,85.8,183.5,85.8z"/>
	<path class="st0" d="M216.1,72.6c-1.6,0-3,0.4-4.3,1.3c-0.5,0.3-1,0.7-1.5,1.2c-0.5,0.5-0.9,0.9-1,1.1c0-0.9-0.2-1.7-0.6-2.3
		c-0.5-0.9-2-1.3-4.3-1.3c-2.4,0-3.9,0.5-4.4,1.4c-0.3,0.5-0.5,1-0.5,1.5c-0.1,0.4-0.1,1.1-0.1,1.9v20.3c0,0.9,0,1.5,0.1,2
		c0.1,0.4,0.2,0.9,0.5,1.5c0.5,1,2,1.5,4.4,1.5c2.4,0,3.9-0.5,4.4-1.5c0.3-0.5,0.5-1,0.5-1.5c0.1-0.4,0.1-1.1,0.1-2V87.6
		c0-1.5,0.5-2.7,1.4-3.6c0.9-0.9,2.2-1.4,3.7-1.4c1.5,0,2.7,0.4,3.6,1.3c0.9,0.9,1.3,2.1,1.3,3.7v10.1c0,1.3,0.1,2.3,0.3,2.9
		c0.4,1.4,2,2.1,4.7,2.1c2.4,0,3.9-0.5,4.5-1.5c0.3-0.5,0.4-1,0.5-1.5c0.1-0.4,0.1-1.1,0.1-2V87.7c0-4.2-1.3-7.8-3.8-10.7
		C223.1,74.1,219.9,72.6,216.1,72.6z"/>
	<path class="st0" d="M263.1,60.1c-0.3-0.6-0.8-1-1.5-1.2c-0.7-0.2-1.7-0.3-2.9-0.3c-1.2,0-2.2,0.1-2.9,0.3
		c-0.7,0.2-1.2,0.6-1.5,1.2c-0.3,0.6-0.5,1.1-0.5,1.5c-0.1,0.4-0.1,1.1-0.1,2v12c-1.6-1.9-3.8-2.9-6.6-2.9c-3.4,0-6.5,1.5-9.4,4.5
		c-2.8,3-4.3,6.5-4.3,10.5c0,4,1.4,7.5,4.2,10.5c2.8,3,6,4.5,9.4,4.5c2.9,0,5.1-0.9,6.7-2.7c0.3,1.9,1.8,2.8,4.4,2.8
		c2.7,0,4.3-0.5,4.8-1.5c0.3-0.5,0.5-1,0.5-1.5c0.1-0.4,0.1-1.1,0.1-2V63.6c0-0.9,0-1.5-0.1-2C263.6,61.2,263.4,60.7,263.1,60.1z
		 M252.1,91.2c-0.9,1-2.1,1.5-3.5,1.5c-1.4,0-2.6-0.5-3.6-1.5c-1-1-1.5-2.2-1.5-3.4c0-1.3,0.5-2.4,1.4-3.5c0.9-1,2.1-1.6,3.7-1.6
		c1.5,0,2.7,0.5,3.6,1.6c0.9,1.1,1.3,2.2,1.3,3.5C253.5,89,253.1,90.1,252.1,91.2z"/>
	<path class="st0" d="M288.7,85.6c-2.4-1.2-4.8-1.9-7.3-2.2c-2.6-0.3-3.9-1.1-3.9-2.2c0-0.8,1.1-1.3,3.4-1.3c1.5,0,2.8,0.3,4,0.9
		c1.2,0.6,2.1,0.9,2.5,0.9c0.9,0,1.7-0.7,2.6-2c0.8-1.3,1.3-2.5,1.3-3.4c0-0.9-0.7-1.7-2-2.3c-2.9-1.3-5.7-1.9-8.4-1.9
		c-8.3,0-12.4,3-12.4,9c0,2,0.4,3.8,1.1,5.2c0.7,1.5,1.6,2.5,2.7,3.2c2.4,1.5,4.8,2.3,7.2,2.7c2.6,0.3,3.8,0.9,3.8,1.6
		c0,0.9-1.2,1.4-3.5,1.4c-1.3,0-2.7-0.5-4.4-1.4c-1.6-0.9-2.9-1.4-3.8-1.4c-0.9,0-1.6,0.3-2,1c-1.5,2-2.2,3.5-2.2,4.5
		c0,1,0.4,1.7,1.1,2.2c3.4,2.1,6.9,3.2,10.6,3.2c3.7,0,6.7-0.6,9.2-1.8c1.3-0.7,2.4-1.7,3.1-3.1c0.7-1.4,1.1-3.1,1.1-5.1
		c0-2-0.4-3.6-1.1-5C290.7,87.1,289.8,86.2,288.7,85.6z"/>
	<path class="st0" d="M42.6,34.1H44v10.6c0,0.6,0,1.1,0.1,1.4c0,0.3,0.2,0.7,0.4,1.1c0.2,0.4,0.6,0.7,1.1,0.8c0.5,0.2,1.2,0.3,2,0.3
		c0.8,0,1.5-0.1,2-0.2c0.5-0.2,0.9-0.5,1.2-1c0.3-0.5,0.4-1.2,0.4-2.3V34.1l2.6,0.2c1.1,0,1.9-0.2,2.4-0.5c0.4-0.2,0.6-0.6,0.8-1.1
		c0.2-0.5,0.3-1.2,0.3-2c0-0.8-0.1-1.5-0.2-2c-0.3-1-1.4-1.5-3.2-1.5L51,27.4v-2.2c0-0.7,0.5-1,1.5-1c0.5,0,0.9,0,1.1,0
		c0.8-0.1,1.4-0.3,1.8-0.7c0.5-0.6,0.7-1.5,0.7-2.8c0-1.7-0.4-2.7-1.1-3.1c-0.4-0.2-0.8-0.3-1.1-0.4c-0.3,0-0.8-0.1-1.4-0.1
		c-2.8,0-4.9,0.8-6.4,2.5c-1.5,1.7-2.2,3.5-2.2,5.6v2.1h-1.3c-1.6,0-2.4,1.1-2.4,3.3c0,1.4,0.3,2.4,0.8,2.9
		C41.4,33.9,41.9,34.1,42.6,34.1z"/>
	<path class="st0" d="M42.6,82.9H44v10.6c0,0.6,0,1.1,0.1,1.4c0,0.3,0.2,0.7,0.4,1.1c0.2,0.4,0.6,0.7,1.1,0.8c0.5,0.2,1.2,0.3,2,0.3
		c0.8,0,1.5-0.1,2-0.2c0.5-0.2,0.9-0.5,1.2-1c0.3-0.5,0.4-1.2,0.4-2.3V82.9l2.6,0.2c1.1,0,1.9-0.2,2.4-0.5c0.4-0.2,0.6-0.6,0.8-1.1
		c0.2-0.5,0.3-1.2,0.3-2c0-0.8-0.1-1.5-0.2-2c-0.3-1-1.4-1.5-3.2-1.5L51,76.3v-2.2c0-0.7,0.5-1,1.5-1c0.5,0,0.9,0,1.1,0
		c0.8-0.1,1.4-0.3,1.8-0.7c0.5-0.6,0.7-1.5,0.7-2.8c0-1.7-0.4-2.7-1.1-3.1c-0.4-0.2-0.8-0.3-1.1-0.4c-0.3,0-0.8-0.1-1.4-0.1
		c-2.8,0-4.9,0.8-6.4,2.5c-1.5,1.7-2.2,3.5-2.2,5.6v2.1h-1.3c-1.6,0-2.4,1.1-2.4,3.3c0,1.4,0.3,2.4,0.8,2.9
		C41.4,82.7,41.9,82.9,42.6,82.9z"/>
	<g>
		<path class="st1" d="M136.7,26.7c0-2.5-2.4-4.5-5.3-4.5H131c-2.9,0-5.3,2-5.3,4.5v27.7h11.1V26.7z"/>
		<circle class="st1" cx="131.2" cy="15" r="5.3"/>
	</g>
</g>
<g>
	<path class="st1" d="M164.8,75.3c0-2.5-2.4-4.5-5.3-4.5h-0.4c-2.9,0-5.3,2-5.3,4.5V103h11.1V75.3z"/>
	<circle class="st1" cx="159.2" cy="63.6" r="5.3"/>
</g>
</svg>
